<?xml version="1.0" encoding="utf-8"?>
<!-- Generator: Adobe Illustrator 15.1.0, SVG Export Plug-In . SVG Version: 6.00 Build 0)  -->
<!DOCTYPE svg PUBLIC "-//W3C//DTD SVG 1.1//EN" "http://www.w3.org/Graphics/SVG/1.1/DTD/svg11.dtd">
<svg version="1.1" id="Layer_1" xmlns="http://www.w3.org/2000/svg" xmlns:xlink="http://www.w3.org/1999/xlink" x="0px" y="0px"
	 width="841.891px" height="595.279px" viewBox="0 0 841.891 595.279" enable-background="new 0 0 841.891 595.279"
	 xml:space="preserve">
<g>
	<g>
		<path fill="#315DAB" d="M24.943,56.405V29.341h5.465v10.651h10.708V29.341h5.464v27.063h-5.464V44.571H30.408v11.834H24.943z"/>
		<path fill="#315DAB" d="M52.229,56.405V29.341h20.067v4.578H57.694v6h13.587v4.561H57.694v7.367h15.12v4.559L52.229,56.405
			L52.229,56.405z"/>
		<path fill="#315DAB" d="M77.595,56.405V29.562h5.464v22.284h13.588v4.559H77.595z"/>
		<path fill="#315DAB" d="M100.543,56.405V29.341h8.771c3.32,0,5.487,0.136,6.498,0.406c1.551,0.405,2.85,1.29,3.896,2.648
			c1.045,1.36,1.568,3.116,1.568,5.271c0,1.662-0.303,3.059-0.905,4.19c-0.603,1.131-1.37,2.021-2.298,2.667
			c-0.929,0.646-1.873,1.075-2.835,1.284c-1.304,0.258-3.192,0.388-5.666,0.388h-3.563v10.208H100.543z M106.008,33.918v7.681h2.99
			c2.154,0,3.594-0.142,4.32-0.424c0.727-0.284,1.295-0.728,1.707-1.33s0.619-1.305,0.619-2.105c0-0.983-0.29-1.796-0.867-2.438
			c-0.58-0.639-1.313-1.039-2.198-1.198c-0.65-0.124-1.964-0.186-3.931-0.186H106.008z"/>
		<path fill="#315DAB" d="M123.17,48.793v-5.188h10.19v5.188H123.17z"/>
		<g>
			<path fill="#315DAB" d="M154.6,32.809c1.085,0,1.964-0.879,1.964-1.965s-0.879-1.964-1.964-1.964
				c-1.086,0-1.965,0.879-1.965,1.964c0,0.478,0.178,0.909,0.461,1.25l-1.691,2.627c-0.74-0.256-1.529-0.409-2.358-0.409
				c-0.585,0-1.146,0.085-1.69,0.216l-1.567-2.434c0.283-0.341,0.461-0.773,0.461-1.25c0-1.085-0.88-1.964-1.964-1.964
				c-1.086,0-1.965,0.879-1.965,1.964s0.879,1.965,1.965,1.965c0.179,0,0.35-0.031,0.513-0.076l1.398,2.174
				c-1.59,0.685-2.889,1.915-3.649,3.466h13.001c-0.661-1.35-1.737-2.447-3.053-3.165l1.592-2.475
				C154.25,32.777,154.42,32.809,154.6,32.809z"/>
			<path fill="#315DAB" d="M154.433,40.694v3.618c0,2.143-0.081,3.674-0.241,4.599c-0.159,0.923-0.633,1.7-1.421,2.334
				c-0.788,0.635-1.957,0.95-3.507,0.95c-1.527,0-2.73-0.336-3.611-1.006c-0.879-0.672-1.437-1.561-1.67-2.667
				c-0.135-0.689-0.203-2.196-0.203-4.523v-3.306h-5.465v3.083c0,3.028,0.178,5.317,0.537,6.868c0.245,1.047,0.755,2.047,1.53,3.001
				s1.83,1.729,3.166,2.325c1.336,0.598,3.298,0.896,5.882,0.896c2.141,0,3.876-0.274,5.207-0.822
				c1.326-0.549,2.39-1.283,3.183-2.207c0.794-0.923,1.34-2.056,1.634-3.396c0.297-1.342,0.444-3.637,0.444-6.886v-2.861H154.433z"
				/>
		</g>
		<path fill="#315DAB" d="M164.272,47.6l5.317-0.518c0.319,1.782,0.97,3.096,1.947,3.933c0.979,0.837,2.297,1.254,3.959,1.254
			c1.76,0,3.086-0.372,3.979-1.116c0.894-0.743,1.338-1.614,1.338-2.611c0-0.641-0.188-1.186-0.563-1.635
			c-0.375-0.448-1.029-0.84-1.965-1.173c-0.641-0.222-2.099-0.613-4.375-1.181c-2.931-0.726-4.986-1.618-6.168-2.677
			c-1.66-1.489-2.491-3.306-2.491-5.447c0-1.378,0.392-2.667,1.172-3.868c0.781-1.201,1.907-2.114,3.38-2.741
			c1.47-0.629,3.244-0.941,5.324-0.941c3.397,0,5.955,0.745,7.672,2.233c1.718,1.489,2.618,3.478,2.703,5.964l-5.463,0.239
			c-0.233-1.39-0.735-2.39-1.506-3c-0.768-0.607-1.922-0.914-3.461-0.914c-1.589,0-2.83,0.327-3.729,0.979
			c-0.579,0.418-0.866,0.979-0.866,1.68c0,0.641,0.269,1.188,0.812,1.645c0.688,0.577,2.361,1.182,5.021,1.809
			c2.656,0.629,4.624,1.277,5.896,1.948c1.275,0.67,2.271,1.587,2.992,2.75c0.719,1.165,1.079,2.6,1.079,4.312
			c0,1.55-0.431,3.003-1.292,4.356c-0.863,1.354-2.08,2.358-3.656,3.018c-1.574,0.659-3.537,0.988-5.889,0.988
			c-3.421,0-6.05-0.791-7.884-2.372S164.629,50.627,164.272,47.6z"/>
	</g>
</g>
<g>
	<g>
		<path fill="#FFFFFF" d="M30.43,111.404V85.632h5.203v10.143H45.83V85.632h5.203v25.771H45.83v-11.27H35.634v11.27L30.43,111.404
			L30.43,111.404z"/>
		<path fill="#FFFFFF" d="M56.413,111.404V85.632h19.109v4.359H61.616v5.714h12.939v4.343H61.616v7.015h14.399v4.341H56.413z"/>
		<path fill="#FFFFFF" d="M80.568,111.404v-25.56h5.203v21.219H98.71v4.341H80.568z"/>
		<path fill="#FFFFFF" d="M102.419,111.404V85.632h8.352c3.164,0,5.226,0.13,6.188,0.388c1.478,0.387,2.713,1.229,3.71,2.522
			c0.995,1.294,1.494,2.967,1.494,5.019c0,1.582-0.289,2.913-0.861,3.991c-0.574,1.078-1.306,1.924-2.188,2.54
			c-0.883,0.615-1.784,1.021-2.699,1.222c-1.242,0.245-3.041,0.37-5.396,0.37h-3.395v9.72H102.419z M107.623,89.992v7.313h2.849
			c2.051,0,3.422-0.136,4.113-0.404c0.692-0.271,1.233-0.691,1.625-1.266c0.394-0.575,0.589-1.244,0.589-2.005
			c0-0.938-0.274-1.711-0.825-2.321c-0.553-0.607-1.25-0.989-2.093-1.142c-0.621-0.118-1.871-0.177-3.743-0.177L107.623,89.992
			L107.623,89.992z"/>
		<path fill="#FFFFFF" d="M123.965,104.156v-4.938h9.705v4.938H123.965z"/>
		<g>
			<path fill="#FFFFFF" d="M153.893,88.935c1.034,0,1.871-0.837,1.871-1.871s-0.837-1.871-1.871-1.871s-1.871,0.837-1.871,1.871
				c0,0.455,0.169,0.865,0.438,1.19l-1.609,2.502c-0.705-0.244-1.456-0.391-2.245-0.391c-0.559,0-1.094,0.081-1.611,0.206
				l-1.494-2.317c0.271-0.325,0.439-0.735,0.439-1.19c0-1.034-0.837-1.871-1.869-1.871c-1.034,0-1.871,0.837-1.871,1.871
				s0.837,1.871,1.871,1.871c0.169,0,0.331-0.03,0.487-0.073l1.332,2.07c-1.515,0.651-2.751,1.823-3.476,3.3h12.379
				c-0.631-1.284-1.654-2.331-2.906-3.014l1.516-2.356C153.561,88.905,153.722,88.935,153.893,88.935z"/>
			<path fill="#FFFFFF" d="M153.735,96.444v3.445c0,2.04-0.078,3.498-0.231,4.378c-0.149,0.88-0.603,1.62-1.352,2.223
				c-0.751,0.604-1.863,0.905-3.34,0.905c-1.454,0-2.601-0.318-3.438-0.957c-0.837-0.64-1.367-1.485-1.59-2.539
				c-0.128-0.657-0.193-2.092-0.193-4.309v-3.146h-5.203v2.937c0,2.883,0.169,5.063,0.511,6.539c0.233,0.997,0.72,1.949,1.458,2.857
				s1.743,1.646,3.015,2.215c1.272,0.568,3.141,0.854,5.601,0.854c2.039,0,3.691-0.261,4.958-0.783
				c1.265-0.521,2.275-1.222,3.03-2.102c0.755-0.878,1.276-1.956,1.556-3.234c0.282-1.276,0.424-3.463,0.424-6.557v-2.726H153.735z"
				/>
		</g>
		<path fill="#FFFFFF" d="M163.103,103.019l5.063-0.492c0.306,1.697,0.922,2.947,1.854,3.745c0.932,0.796,2.188,1.194,3.77,1.194
			c1.676,0,2.938-0.355,3.789-1.064c0.853-0.708,1.274-1.538,1.274-2.485c0-0.609-0.177-1.129-0.536-1.558
			c-0.357-0.428-0.98-0.8-1.871-1.115c-0.61-0.213-1.998-0.585-4.166-1.125c-2.79-0.69-4.748-1.54-5.873-2.549
			c-1.581-1.419-2.372-3.146-2.372-5.187c0-1.313,0.372-2.541,1.116-3.683c0.744-1.145,1.814-2.016,3.217-2.61
			c1.398-0.599,3.089-0.897,5.07-0.897c3.235,0,5.67,0.71,7.306,2.128c1.635,1.417,2.494,3.312,2.574,5.679l-5.202,0.229
			c-0.223-1.324-0.701-2.275-1.434-2.856c-0.731-0.579-1.83-0.869-3.296-0.869c-1.513,0-2.695,0.311-3.551,0.932
			c-0.552,0.397-0.825,0.932-0.825,1.601c0,0.607,0.257,1.131,0.773,1.563c0.654,0.551,2.249,1.126,4.781,1.723
			c2.529,0.6,4.401,1.216,5.615,1.855c1.215,0.638,2.163,1.511,2.85,2.618c0.684,1.107,1.028,2.476,1.028,4.105
			c0,1.476-0.411,2.858-1.231,4.147c-0.822,1.291-1.979,2.247-3.48,2.873c-1.499,0.629-3.368,0.94-5.607,0.94
			c-3.256,0-5.76-0.753-7.506-2.258C164.487,108.096,163.443,105.902,163.103,103.019z"/>
	</g>
</g>
<g>
	<path fill="#FFFFFF" d="M66.65,139.307c-0.451,1.46-1.409,2.411-2.446,3.284c1.243-0.089,2.199-0.467,3.163-0.835
		c-0.187,0.644-0.751,1.228-1.254,1.729c-0.515,0.515-1.07,1.003-1.611,1.434c-0.091,5.421-1.855,9.918-4.896,13.133
		c-3.383,3.578-7.688,5.877-14.626,5.492c-3.253-0.182-5.5-1.338-7.879-2.627c3.926,0.025,6.877-0.924,9.015-2.688
		c-2.992-0.352-4.798-1.888-5.73-4.297c0.544-0.188,1.972,0.084,2.627-0.18c-2.715-0.969-4.701-2.661-4.835-6.209
		c0.809,0.306,1.581,0.646,2.626,0.717c-0.247-0.436-0.754-0.684-1.135-1.134c-1.414-1.672-1.984-4.905-0.717-7.104
		c0.962,0.589,1.646,1.523,2.508,2.27c2.585,2.237,5.977,3.761,10.446,4.179c-0.497-4.32,2.164-7.947,6.625-7.7
		c1.441,0.08,2.49,0.536,3.403,1.253c0.274,0.218,0.556,0.609,0.835,0.657c0.61,0.105,1.476-0.381,2.029-0.597
		C65.524,139.802,66.115,139.492,66.65,139.307z"/>
	<path fill="#FFFFFF" d="M93.999,138.759c1.547,0,3.096,0,4.643,0c-0.028,1.577,0.06,3.271-0.043,4.774
		c-1.37,0.146-2.874-0.298-3.716,0.266c-0.979,0.655-0.327,2.55-0.529,4.023c1.43,0,2.857,0,4.288,0
		c-0.143,1.61-0.346,3.161-0.485,4.774c-1.269,0-2.535,0-3.803,0c0,4.612,0,9.226,0,13.839c-1.726,0-3.449,0-5.173,0
		c0-4.613,0-9.227,0-13.839c-1.15,0-2.301,0-3.448,0c0.028-1.577-0.06-3.271,0.043-4.774c1.136,0,2.27,0,3.405,0
		c-0.104-3.796-0.114-7.127,2.299-8.4C92.154,139.066,92.996,138.905,93.999,138.759z"/>
	<g>
		<path fill="#FFFFFF" d="M116.173,152.787c0-0.753,0-1.507,0-2.26c0.822-7.976,9.225-14.235,18.071-10.811
			c0.971,0.376,3.915,1.796,3.873,2.581c-0.007,0.104-1.5,1.348-1.775,1.613c-0.714,0.688-1.218,1.258-1.937,1.613
			c-4.967-4.758-13.347-0.217-13.23,6.293c0.161,9.08,13.926,10.796,15.49,2.42c-2.421,0-4.841,0-7.261,0
			c0.104-1.398-0.214-3.226,0.16-4.355c4.036,0.105,8.496-0.213,12.263,0.161c0.329,4.862-0.813,8.49-3.227,10.972
			C131.045,168.786,116.302,162.807,116.173,152.787z"/>
		<path fill="#FFFFFF" d="M157.479,149.72c0,1.237,0,2.475,0,3.712c-1.237,0-2.475,0-3.711,0c0,1.237,0,2.476,0,3.711
			c-1.238-0.105-2.903,0.213-3.872-0.162c0-1.183,0-2.366,0-3.549c-1.237,0-2.476,0-3.712,0c0.093-1.199-0.193-2.774,0.162-3.712
			c1.183,0,2.365,0,3.55,0c0-1.183,0-2.366,0-3.549c1.237,0.104,2.901-0.214,3.872,0.161c0,1.13,0,2.259,0,3.388
			C155.005,149.72,156.242,149.72,157.479,149.72z"/>
	</g>
</g>
<g>
	<path fill="#FFFFFF" d="M39.079,209.957h2.192c1.845,0,3.411-1.2,3.969-2.859h-6.161V209.957z"/>
	<path fill="#FFFFFF" d="M48.338,204.44h6.16v-2.858h-2.191C50.463,201.581,48.895,202.781,48.338,204.44z"/>
	<path fill="#FFFFFF" d="M46.79,189.948c-8.736,0-15.82,7.083-15.82,15.82c0,8.738,7.084,15.821,15.82,15.821
		c8.737,0,15.82-7.083,15.82-15.821C62.61,197.031,55.527,189.948,46.79,189.948z M57.16,199.121v2.46v2.858v1.46v1.197h-8.821
		c0.558,1.659,2.125,2.859,3.969,2.859h4.854v2.658h-4.854c-2.263,0-4.271-1.104-5.518-2.799c-1.249,1.695-3.256,2.799-5.519,2.799
		h-4.853v-0.198v-2.46v-2.859v-1.46v-1.197h8.82c-0.558-1.659-2.124-2.858-3.969-2.858h-4.853v-2.659h4.853
		c2.263,0,4.27,1.103,5.519,2.799c1.247-1.696,3.255-2.799,5.518-2.799h4.854V199.121z"/>
</g>
<path fill="#FFFFFF" d="M249.245,42.208h-25.626l6.508-6.508c0.186-0.186,0.287-0.432,0.287-0.692s-0.103-0.507-0.287-0.692
	c-0.186-0.186-0.432-0.287-0.692-0.287c-0.262,0-0.506,0.103-0.691,0.287l-8.179,8.18c-0.187,0.185-0.287,0.431-0.287,0.691
	c0,0.262,0.102,0.507,0.287,0.692l8.179,8.179c0.187,0.187,0.431,0.287,0.692,0.287c0.261,0,0.507-0.102,0.691-0.287
	c0.186-0.185,0.287-0.431,0.287-0.691c0-0.262-0.103-0.508-0.287-0.692l-6.508-6.509h25.626c0.54,0,0.979-0.439,0.979-0.979
	C250.225,42.646,249.785,42.208,249.245,42.208z"/>
<g>
	<circle fill="#FFFFFF" cx="362.592" cy="66.469" r="58"/>
	<g>
		<g>
			<g>
				<polygon fill="#67BA45" points="349.69,78.667 337.895,66.873 331.411,73.357 346.975,88.921 346.993,88.903 349.833,91.745 
					393.773,47.804 387.162,41.194 				"/>
			</g>
		</g>
	</g>
</g>
<g>
	<g>
		<g>
			<g>
				<g>
					<path fill="#FFFFFF" d="M49.616,317.406c2.42,0,4.785-1.469,6.657-4.137c1.651-2.354,2.638-5.264,2.638-7.783
						c0-5.125-4.17-9.297-9.295-9.297s-9.295,4.172-9.295,9.297c0,2.521,0.986,5.43,2.638,7.783
						C44.831,315.938,47.195,317.406,49.616,317.406z M49.616,297.706c4.289,0,7.779,3.489,7.779,7.78
						c0,2.188-0.906,4.838-2.363,6.912c-1.557,2.219-3.531,3.492-5.416,3.492c-1.886,0-3.86-1.273-5.416-3.492
						c-1.458-2.074-2.363-4.725-2.363-6.912C41.836,301.195,45.326,297.706,49.616,297.706z"/>
					<path fill="#FFFFFF" d="M53.525,335.77c-0.009-0.018-0.007-0.014-0.004-0.004c-0.038-0.088-0.092-0.174-0.162-0.24
						c-0.284-0.291-0.786-0.291-1.07,0c-0.424,0.412-0.196,1.146,0.369,1.273c0.592,0.135,1.087-0.47,0.868-1.023
						C53.53,335.784,53.533,335.79,53.525,335.77z"/>
					<path fill="#FFFFFF" d="M69.399,323.036c-1.976-1.979-4.586-2.934-7.182-2.879c-1.521-1.885-3.468-3.424-5.65-4.463
						c-0.29-0.137-0.634-0.076-0.86,0.148c-1.827,1.821-3.933,2.785-6.093,2.785s-4.267-0.964-6.091-2.785
						c-0.228-0.226-0.572-0.285-0.861-0.148c-2.725,1.299-5.031,3.328-6.669,5.867c-1.682,2.611-2.571,5.641-2.571,8.762v0.013
						c0,0.213,0.091,0.418,0.249,0.563c4.373,3.965,10.035,6.148,15.944,6.148c0.313,0,0.628-0.007,0.938-0.019
						c0.418-0.018,0.744-0.369,0.729-0.785c-0.017-0.42-0.37-0.746-0.788-0.729c-0.29,0.01-0.586,0.018-0.878,0.018
						c-5.418,0-10.616-1.965-14.673-5.533c0.059-2.715,0.861-5.34,2.326-7.612c1.392-2.16,3.313-3.908,5.582-5.092
						c2.023,1.866,4.354,2.85,6.766,2.85c2.411,0,4.741-0.982,6.767-2.85c1.5,0.782,2.864,1.827,4.017,3.073
						c-1.81,0.377-3.53,1.267-4.932,2.668c-3.841,3.84-3.841,10.09,0,13.933c1.922,1.922,4.444,2.879,6.968,2.879
						c2.521,0,5.044-0.957,6.966-2.879c1.861-1.863,2.886-4.336,2.886-6.968C72.287,327.37,71.261,324.895,69.399,323.036z
						 M69.765,326.029l-5.097,5.094l-1.142-1.143l5.313-5.313C69.195,325.092,69.504,325.551,69.765,326.029z M67.767,323.598
						l-5.313,5.311l-1.144-1.143l5.093-5.094C66.881,322.93,67.339,323.238,67.767,323.598z M63.26,331.855l-3.976,1.293
						l1.293-3.973L63.26,331.855z M68.327,335.896c-3.249,3.25-8.538,3.25-11.788,0c-3.251-3.25-3.251-8.539,0-11.789
						c1.625-1.625,3.758-2.438,5.896-2.438c0.829,0,1.658,0.123,2.459,0.368l-5.19,5.189c-0.083,0.086-0.146,0.188-0.185,0.303
						l-2.137,6.564c-0.088,0.271-0.017,0.569,0.186,0.771c0.144,0.146,0.338,0.224,0.535,0.224c0.079,0,0.158-0.013,0.234-0.037
						l6.566-2.138c0.113-0.034,0.216-0.098,0.302-0.184l5.195-5.197c0.243,0.789,0.37,1.617,0.37,2.468
						C70.771,332.23,69.903,334.32,68.327,335.896z"/>
				</g>
			</g>
		</g>
		<g>
			<path fill="#FFFFFF" d="M64.395,261.708c-2.377,0-4.429,1.417-5.357,3.447c-1.036-0.884-2.178-1.623-3.409-2.21
				c-0.278-0.132-0.61-0.074-0.83,0.143c-1.759,1.754-3.789,2.683-5.869,2.683c-2.081,0-4.111-0.927-5.868-2.683
				c-0.22-0.219-0.552-0.273-0.831-0.143c-2.625,1.25-4.846,3.205-6.423,5.653c-1.621,2.518-2.479,5.435-2.479,8.438v0.013
				c0,0.207,0.087,0.402,0.24,0.54c4.211,3.822,9.667,5.926,15.36,5.926c2.16,0,4.297-0.301,6.353-0.894
				c0.387-0.112,0.612-0.517,0.5-0.904s-0.517-0.611-0.905-0.5c-1.923,0.556-3.925,0.837-5.946,0.837
				c-5.221,0-10.229-1.888-14.137-5.328c0.058-2.615,0.828-5.146,2.241-7.338c1.341-2.079,3.192-3.764,5.376-4.901
				c1.952,1.798,4.196,2.742,6.52,2.742c2.322,0,4.567-0.944,6.52-2.742c1.137,0.593,2.185,1.334,3.126,2.215
				c-0.045,0.291-0.068,0.59-0.068,0.892v13.852c0,2.634,2.143,4.776,4.774,4.776s4.775-2.144,4.775-4.776V270.28
				c0-1.963-1.599-3.562-3.563-3.562c-1.963,0-3.561,1.599-3.561,3.562v10.003c0,0.4,0.327,0.729,0.73,0.729
				c0.402,0,0.729-0.328,0.729-0.729V270.28c0-1.156,0.942-2.101,2.101-2.101c1.159,0,2.102,0.943,2.102,2.101v11.165
				c0,1.828-1.486,3.314-3.314,3.314c-1.827,0-3.313-1.486-3.313-3.314v-13.852c0-2.441,1.984-4.428,4.427-4.428
				c2.439,0,4.426,1.985,4.426,4.428v12.688c0,0.401,0.326,0.729,0.73,0.729c0.402,0,0.73-0.328,0.73-0.729v-12.688
				C70.281,264.347,67.64,261.708,64.395,261.708L64.395,261.708z"/>
			<path fill="#FFFFFF" d="M48.93,264.592c2.333,0,4.609-1.415,6.414-3.983c1.591-2.27,2.542-5.073,2.542-7.503
				c0-4.937-4.018-8.955-8.955-8.955c-4.938,0-8.956,4.019-8.956,8.955c0,2.43,0.95,5.233,2.542,7.503
				C44.319,263.177,46.598,264.592,48.93,264.592L48.93,264.592z M48.93,245.613c4.132,0,7.494,3.361,7.494,7.493
				c0,2.11-0.872,4.662-2.275,6.663c-1.5,2.137-3.401,3.363-5.218,3.363s-3.719-1.228-5.22-3.363
				c-1.403-2.001-2.274-4.553-2.274-6.663C41.435,248.974,44.797,245.613,48.93,245.613L48.93,245.613z"/>
			<path fill="#FFFFFF" d="M57.814,280.922C57.832,280.965,57.796,280.877,57.814,280.922L57.814,280.922z"/>
			<path fill="#FFFFFF" d="M57.123,280.472c-0.318,0.007-0.6,0.229-0.686,0.533c-0.183,0.646,0.571,1.173,1.121,0.794
				c0.275-0.191,0.388-0.566,0.256-0.877C57.704,280.645,57.418,280.463,57.123,280.472L57.123,280.472z"/>
		</g>
	</g>
</g>
<g>
	<g>
		<g>
			<g>
				<g>
					<path fill="#859FCE" d="M111.089,317.713c2.42,0,4.785-1.47,6.656-4.138c1.652-2.354,2.639-5.264,2.639-7.784
						c0-5.125-4.17-9.296-9.295-9.296c-5.126,0-9.296,4.171-9.296,9.296c0,2.521,0.985,5.432,2.639,7.784
						C106.304,316.243,108.667,317.713,111.089,317.713z M111.089,298.011c4.289,0,7.779,3.489,7.779,7.78
						c0,2.188-0.906,4.838-2.363,6.913c-1.558,2.22-3.53,3.492-5.416,3.492c-1.887,0-3.859-1.272-5.416-3.492
						c-1.459-2.075-2.362-4.727-2.362-6.913C103.31,301.5,106.798,298.011,111.089,298.011z"/>
					<path fill="#859FCE" d="M114.998,336.075c-0.008-0.018-0.006-0.014-0.004-0.004c-0.037-0.088-0.092-0.174-0.162-0.24
						c-0.283-0.293-0.785-0.293-1.069,0c-0.425,0.41-0.195,1.146,0.368,1.273c0.594,0.135,1.089-0.471,0.868-1.023
						C115.003,336.092,115.005,336.096,114.998,336.075z"/>
					<path fill="#859FCE" d="M130.873,323.342c-1.975-1.978-4.586-2.935-7.181-2.877c-1.522-1.886-3.468-3.425-5.651-4.463
						c-0.289-0.14-0.633-0.078-0.858,0.146c-1.827,1.822-3.935,2.785-6.094,2.785s-4.267-0.963-6.091-2.785
						c-0.227-0.225-0.572-0.285-0.86-0.146c-2.726,1.299-5.031,3.325-6.671,5.866c-1.682,2.611-2.569,5.642-2.569,8.761v0.012
						c0,0.215,0.09,0.42,0.248,0.563c4.373,3.966,10.035,6.146,15.943,6.146c0.313,0,0.628-0.006,0.938-0.016
						c0.418-0.019,0.745-0.369,0.729-0.787c-0.016-0.418-0.368-0.744-0.787-0.728c-0.289,0.01-0.586,0.017-0.878,0.017
						c-5.419,0-10.615-1.966-14.673-5.533c0.06-2.713,0.861-5.338,2.326-7.613c1.392-2.158,3.313-3.908,5.581-5.09
						c2.024,1.867,4.354,2.848,6.766,2.848s4.741-0.979,6.768-2.848c1.5,0.783,2.863,1.828,4.016,3.072
						c-1.809,0.377-3.528,1.268-4.93,2.668c-3.842,3.842-3.842,10.09,0,13.934c1.92,1.92,4.443,2.879,6.967,2.879
						c2.522,0,5.045-0.959,6.966-2.879c1.86-1.863,2.887-4.336,2.887-6.969C133.759,327.676,132.734,325.2,130.873,323.342z
						 M131.238,326.336l-5.096,5.092L125,330.286l5.313-5.313C130.667,325.396,130.977,325.855,131.238,326.336z M129.24,323.902
						l-5.313,5.313l-1.144-1.144l5.092-5.094C128.354,323.236,128.812,323.545,129.24,323.902z M124.733,332.161l-3.977,1.293
						l1.293-3.973L124.733,332.161z M129.8,336.2c-3.249,3.25-8.537,3.25-11.786,0c-3.252-3.248-3.252-8.537,0-11.787
						c1.624-1.627,3.758-2.438,5.895-2.438c0.829,0,1.658,0.123,2.459,0.369l-5.189,5.19c-0.083,0.084-0.147,0.188-0.186,0.302
						l-2.137,6.565c-0.088,0.271-0.018,0.57,0.186,0.771c0.146,0.145,0.338,0.221,0.535,0.221c0.078,0,0.158-0.01,0.234-0.035
						l6.565-2.139c0.113-0.035,0.217-0.099,0.303-0.185l5.193-5.196c0.244,0.791,0.37,1.616,0.37,2.467
						C132.244,332.534,131.376,334.627,129.8,336.2z"/>
				</g>
			</g>
		</g>
		<g>
			<path fill="#859FCE" d="M125.869,262.013c-2.378,0-4.428,1.417-5.356,3.448c-1.036-0.884-2.18-1.624-3.409-2.21
				c-0.278-0.132-0.61-0.075-0.829,0.142c-1.76,1.754-3.789,2.684-5.871,2.684c-2.08,0-4.11-0.928-5.867-2.684
				c-0.22-0.219-0.551-0.272-0.831-0.142c-2.626,1.25-4.845,3.205-6.423,5.652c-1.621,2.518-2.479,5.435-2.479,8.438v0.013
				c0,0.207,0.087,0.402,0.239,0.54c4.211,3.822,9.667,5.926,15.359,5.926c2.161,0,4.298-0.301,6.354-0.894
				c0.388-0.112,0.611-0.516,0.499-0.904c-0.111-0.388-0.517-0.61-0.904-0.5c-1.923,0.557-3.925,0.837-5.947,0.837
				c-5.22,0-10.229-1.888-14.136-5.328c0.057-2.614,0.828-5.146,2.24-7.338c1.341-2.079,3.191-3.764,5.376-4.9
				c1.952,1.797,4.196,2.742,6.52,2.742c2.324,0,4.568-0.945,6.521-2.742c1.139,0.592,2.186,1.334,3.126,2.214
				c-0.045,0.291-0.067,0.59-0.067,0.892v13.853c0,2.633,2.143,4.775,4.774,4.775c2.633,0,4.775-2.144,4.775-4.775v-11.165
				c0-1.963-1.599-3.563-3.563-3.563s-3.562,1.6-3.562,3.563v10.002c0,0.4,0.326,0.729,0.73,0.729c0.401,0,0.729-0.328,0.729-0.729
				v-10.002c0-1.157,0.942-2.102,2.102-2.102c1.158,0,2.101,0.943,2.101,2.102v11.165c0,1.828-1.485,3.313-3.313,3.313
				c-1.826,0-3.313-1.485-3.313-3.313v-13.853c0-2.44,1.985-4.428,4.428-4.428c2.439,0,4.426,1.986,4.426,4.428v12.688
				c0,0.4,0.326,0.729,0.729,0.729s0.73-0.328,0.73-0.729v-12.688C131.754,264.653,129.113,262.013,125.869,262.013L125.869,262.013
				z"/>
			<path fill="#859FCE" d="M110.403,264.898c2.333,0,4.61-1.415,6.413-3.982c1.592-2.271,2.542-5.074,2.542-7.503
				c0-4.938-4.018-8.955-8.955-8.955c-4.938,0-8.956,4.019-8.956,8.955c0,2.429,0.951,5.232,2.543,7.503
				C105.792,263.483,108.071,264.898,110.403,264.898L110.403,264.898z M110.403,245.918c4.132,0,7.495,3.36,7.495,7.493
				c0,2.109-0.873,4.661-2.277,6.663c-1.5,2.137-3.399,3.362-5.218,3.362c-1.815,0-3.718-1.227-5.22-3.362
				c-1.403-2.002-2.275-4.554-2.275-6.663C102.908,249.28,106.27,245.918,110.403,245.918L110.403,245.918z"/>
			<path fill="#859FCE" d="M119.288,281.228C119.305,281.271,119.269,281.183,119.288,281.228L119.288,281.228z"/>
			<path fill="#859FCE" d="M118.595,280.778c-0.318,0.008-0.601,0.229-0.687,0.533c-0.182,0.647,0.572,1.173,1.121,0.794
				c0.276-0.19,0.389-0.565,0.257-0.877C119.177,280.951,118.891,280.769,118.595,280.778L118.595,280.778z"/>
		</g>
	</g>
</g>
<g>
	<g>
		<g>
			<g>
				<path fill="#A8BAC1" d="M573.436,38.784c-3.018-3.017-3.471-4.53-3.471-9.35c0-4.956-4.018-8.974-8.973-8.974
					s-8.972,4.018-8.972,8.974c0,2.599-0.069,3.569-0.427,4.759c-0.445,1.484-1.358,2.904-3.043,4.591
					c-0.809,0.808-0.236,2.188,0.905,2.188h7.113l-0.063,0.641c0,2.479,2.009,4.487,4.485,4.487c2.478,0,4.485-2.009,4.485-4.487
					l-0.063-0.641h7.113C573.672,40.972,574.243,39.591,573.436,38.784z M560.993,44.818c-1.77,0-3.204-1.436-3.204-3.205
					l0.064-0.641h6.279l0.065,0.641C564.199,43.383,562.764,44.818,560.993,44.818z M549.46,39.69
					c3.845-3.846,3.845-6.41,3.845-10.256c0-4.247,3.441-7.69,7.688-7.69c4.248,0,7.69,3.443,7.691,7.69
					c0,3.846,0,6.41,3.845,10.256H549.46z"/>
			</g>
		</g>
	</g>
	<g id="Sign_Out">
		<g>
			<path fill="#A8BAC1" d="M654.659,44.909h-10.211V22.915h10.211c0.435,0,0.786-0.353,0.786-0.785c0-0.434-0.353-0.786-0.786-0.786
				h-10.996c-0.434,0-0.785,0.352-0.785,0.786v23.564c0,0.435,0.353,0.786,0.785,0.786h10.996c0.435,0,0.786-0.352,0.786-0.786
				C655.445,45.261,655.094,44.909,654.659,44.909z"/>
			<path fill="#A8BAC1" d="M667.785,33.364l-5.42-5.498c-0.307-0.311-0.805-0.31-1.109,0c-0.309,0.311-0.309,0.813,0,1.122
				l4.084,4.144h-16.177c-0.434,0-0.784,0.354-0.784,0.793c0,0.438,0.352,0.793,0.784,0.793h16.177l-4.084,4.144
				c-0.309,0.311-0.309,0.813,0,1.122c0.307,0.312,0.804,0.312,1.109,0l5.419-5.498C668.089,34.18,668.092,33.668,667.785,33.364z"
				/>
		</g>
	</g>
	<g>
		<g>
			<path fill="#A8BAC1" d="M480.235,47.125c-0.121,0-0.246-0.005-0.373-0.012c-0.107-0.005-0.219-0.01-0.33-0.01h-2.021
				c-0.091,0-0.186,0.003-0.276,0.005c-0.104,0.002-0.206,0.005-0.305,0.005c-0.001,0-0.002,0-0.004,0
				c-0.326,0-1.188-0.002-1.553-0.741c-0.138-0.279-0.162-0.584-0.185-0.829c-0.006-0.075-0.012-0.148-0.021-0.217
				c-0.042-0.275-0.085-0.547-0.131-0.815c-0.064-0.415-0.132-0.829-0.192-1.258c-0.045-0.018-0.09-0.034-0.133-0.051
				c-0.209-0.08-0.423-0.162-0.633-0.257c-0.551,0.409-1.066,0.801-1.6,1.213c-0.036,0.027-0.075,0.061-0.114,0.096
				c-0.208,0.178-0.493,0.423-0.881,0.506c-0.111,0.024-0.223,0.036-0.328,0.036c-0.557,0-0.887-0.315-1.086-0.504l-0.161-0.149
				c-0.842-0.768-1.637-1.492-2.376-2.404l-0.062-0.073c-0.188-0.219-0.534-0.625-0.438-1.296c0.062-0.407,0.322-0.728,0.516-0.96
				l0.082-0.102c0.177-0.229,0.354-0.454,0.528-0.678c0.225-0.285,0.445-0.567,0.665-0.854c-0.149-0.315-0.278-0.626-0.39-0.935
				c-0.249-0.037-0.491-0.073-0.733-0.108c-0.418-0.061-0.837-0.122-1.286-0.189c-0.064-0.01-0.133-0.02-0.197-0.026
				c-0.46-0.056-1.314-0.16-1.542-1.06c-0.076-0.302-0.063-0.622-0.048-0.933c0.005-0.1,0.01-0.2,0.01-0.295v-2.098
				c0-0.089-0.001-0.178-0.003-0.264c-0.013-0.602-0.028-1.424,0.733-1.82c0.277-0.145,0.582-0.177,0.852-0.206
				c0.067-0.008,0.136-0.015,0.2-0.024l0.716-0.107c0.441-0.067,0.885-0.134,1.324-0.198c0.11-0.286,0.223-0.558,0.347-0.82
				c-0.337-0.484-0.715-0.947-1.111-1.433l-0.13-0.159c-0.019-0.021-0.041-0.046-0.065-0.075c-0.231-0.259-0.621-0.692-0.562-1.254
				c0.064-0.586,0.461-1.005,0.75-1.311c0.045-0.048,0.088-0.094,0.127-0.139c0.628-0.706,1.374-1.52,2.281-2.212l0.053-0.041
				c0.202-0.157,0.543-0.422,1.028-0.422c0.535,0.009,0.901,0.313,1.145,0.513l0.096,0.076c0.258,0.199,0.511,0.399,0.762,0.599
				c0.288,0.228,0.574,0.454,0.865,0.676c0.26-0.122,0.517-0.229,0.77-0.323c0.014-0.108,0.028-0.22,0.043-0.333
				c0.076-0.615,0.157-1.252,0.27-1.831l0.025-0.138c0.083-0.458,0.255-1.411,1.247-1.543c0.229-0.03,0.521-0.028,0.816-0.016
				c0.108,0.004,0.219,0.009,0.326,0.009h2.053c0.078,0,0.156-0.001,0.233-0.003c0.085-0.001,0.17-0.003,0.251-0.003
				c0.369,0,1.231,0,1.595,0.761c0.132,0.276,0.156,0.567,0.18,0.823c0.007,0.074,0.013,0.147,0.023,0.215l0.314,2.057
				c0.253,0.095,0.51,0.192,0.761,0.308l0.125-0.092c0.485-0.354,0.995-0.727,1.488-1.105c0.041-0.032,0.082-0.068,0.125-0.106
				c0.229-0.203,0.613-0.542,1.179-0.542c0.141,0,0.282,0.021,0.424,0.063c0.388,0.118,0.72,0.432,1.08,0.801l0.482,0.473
				c0.543,0.525,1.105,1.069,1.635,1.712l0.046,0.056c0.208,0.247,0.596,0.707,0.431,1.413c-0.089,0.372-0.317,0.651-0.484,0.855
				c-0.033,0.041-0.066,0.08-0.094,0.118c-0.189,0.252-0.376,0.489-0.56,0.724c-0.215,0.272-0.419,0.535-0.622,0.81
				c0.136,0.286,0.268,0.586,0.384,0.908c0.317,0.048,0.639,0.099,0.96,0.149c0.352,0.058,0.705,0.113,1.059,0.166l0.178,0.024
				c0.479,0.061,1.275,0.165,1.549,0.976c0.102,0.299,0.089,0.66,0.076,1.009c-0.003,0.096-0.007,0.188-0.007,0.274v2.113
				c0,0.085,0.002,0.169,0.004,0.251c0.012,0.613,0.027,1.456-0.758,1.852c-0.272,0.139-0.575,0.171-0.84,0.201
				c-0.068,0.008-0.136,0.015-0.2,0.025l-0.19,0.028c-0.623,0.095-1.24,0.188-1.858,0.277c-0.104,0.266-0.213,0.536-0.336,0.799
				c0.355,0.5,0.769,1.019,1.17,1.521l0.043,0.053c0.031,0.039,0.067,0.076,0.104,0.115c0.217,0.229,0.619,0.655,0.547,1.329
				c-0.041,0.382-0.271,0.664-0.438,0.869l-0.046,0.058c-0.596,0.746-1.239,1.415-2.154,2.235c-0.17,0.153-0.336,0.292-0.505,0.422
				l-0.053,0.04c-0.201,0.157-0.539,0.423-1.035,0.423c-0.101,0-0.204-0.013-0.305-0.034c-0.396-0.088-0.688-0.333-0.897-0.512
				c-0.038-0.032-0.074-0.063-0.108-0.091c-0.329-0.256-0.654-0.512-0.978-0.767c-0.194-0.153-0.388-0.307-0.581-0.458
				c-0.239,0.111-0.498,0.222-0.772,0.322c-0.015,0.117-0.027,0.232-0.042,0.35c-0.078,0.661-0.16,1.346-0.307,2.038
				c-0.098,0.467-0.272,1.314-1.196,1.454C480.541,47.115,480.398,47.125,480.235,47.125z M477.511,45.583h2.021
				c0.135,0,0.268,0.005,0.396,0.011c0.135,0.006,0.266,0.013,0.391,0.008c0.021-0.078,0.042-0.181,0.06-0.259
				c0.134-0.641,0.209-1.263,0.286-1.92c0.034-0.279,0.067-0.56,0.104-0.841l0.065-0.487l0.473-0.14
				c0.532-0.158,1.007-0.38,1.438-0.596l0.429-0.213l0.377,0.293c0.32,0.25,0.64,0.501,0.962,0.755
				c0.318,0.252,0.642,0.507,0.968,0.762c0.05,0.038,0.102,0.082,0.155,0.127c0.06,0.051,0.15,0.128,0.215,0.168
				c0.034-0.023,0.074-0.056,0.104-0.08l0.065-0.051c0.158-0.122,0.297-0.239,0.414-0.346c0.849-0.763,1.44-1.376,1.979-2.053
				l0.057-0.068c0.02-0.024,0.044-0.056,0.065-0.084c-0.03-0.035-0.07-0.078-0.102-0.11c-0.067-0.072-0.133-0.143-0.188-0.212
				l-0.042-0.053c-0.52-0.651-1.058-1.325-1.499-1.992l-0.257-0.39l0.23-0.407c0.188-0.333,0.343-0.725,0.506-1.139l0.287-0.723
				l0.436-0.062c0.761-0.105,1.519-0.222,2.281-0.338l0.191-0.029c0.082-0.012,0.171-0.021,0.259-0.032
				c0.071-0.007,0.167-0.02,0.24-0.03c0.014-0.126,0.01-0.334,0.007-0.483c-0.002-0.091-0.004-0.185-0.004-0.278v-2.113
				c0-0.102,0.004-0.212,0.008-0.325c0.004-0.107,0.009-0.267,0.006-0.38c-0.089-0.019-0.213-0.035-0.306-0.046
				c-0.068-0.009-0.139-0.018-0.208-0.028c-0.357-0.053-0.718-0.109-1.075-0.168c-0.468-0.075-0.936-0.148-1.397-0.213l-0.485-0.066
				l-0.14-0.473c-0.164-0.558-0.396-1.05-0.643-1.548l-0.197-0.402l0.256-0.367c0.313-0.447,0.626-0.849,0.93-1.235
				c0.178-0.228,0.357-0.457,0.543-0.702c0.04-0.054,0.085-0.109,0.131-0.166c0.049-0.059,0.123-0.149,0.162-0.211
				c-0.027-0.036-0.065-0.083-0.096-0.117l-0.056-0.065c-0.475-0.577-0.98-1.066-1.519-1.585l-0.512-0.5
				c-0.093-0.097-0.296-0.304-0.419-0.392c-0.051,0.036-0.12,0.1-0.173,0.145c-0.067,0.061-0.136,0.12-0.202,0.171
				c-0.504,0.387-1.023,0.769-1.521,1.129l-0.901,0.663l-0.432-0.253c-0.297-0.173-0.661-0.31-1.048-0.454
				c-0.12-0.044-0.241-0.09-0.36-0.136l-0.409-0.159l-0.45-2.931c-0.014-0.098-0.023-0.204-0.032-0.312
				c-0.007-0.056-0.013-0.127-0.021-0.189c-0.09-0.008-0.274-0.009-0.465-0.005c-0.086,0.001-0.174,0.003-0.261,0.003h-2.054
				c-0.128,0-0.258-0.005-0.387-0.01c-0.149-0.006-0.301-0.013-0.44-0.007c-0.024,0.09-0.049,0.221-0.066,0.317l-0.028,0.154
				c-0.102,0.529-0.18,1.142-0.253,1.732c-0.037,0.287-0.071,0.563-0.106,0.817l-0.068,0.479l-0.461,0.142
				c-0.464,0.144-0.916,0.331-1.422,0.593l-0.422,0.218l-0.381-0.283c-0.43-0.319-0.848-0.65-1.269-0.983
				c-0.248-0.195-0.497-0.392-0.749-0.588c-0.043-0.032-0.087-0.068-0.132-0.105c-0.049-0.04-0.12-0.1-0.175-0.138
				c-0.032,0.023-0.069,0.053-0.098,0.075l-0.063,0.048c-0.799,0.611-1.459,1.33-2.067,2.016c-0.05,0.055-0.104,0.111-0.158,0.171
				c-0.085,0.09-0.227,0.239-0.3,0.347c0.046,0.058,0.104,0.12,0.138,0.159c0.044,0.049,0.083,0.093,0.111,0.129l0.129,0.157
				c0.521,0.639,1.017,1.241,1.456,1.938l0.24,0.381l-0.217,0.394c-0.233,0.422-0.422,0.912-0.628,1.461l-0.159,0.424l-0.447,0.063
				c-0.581,0.081-1.167,0.169-1.754,0.258l-0.72,0.108c-0.084,0.012-0.172,0.021-0.258,0.03c-0.067,0.007-0.156,0.019-0.228,0.028
				c-0.012,0.123-0.008,0.317-0.005,0.457c0.002,0.096,0.003,0.194,0.003,0.293v2.098c0,0.116-0.005,0.24-0.01,0.364
				c-0.005,0.113-0.012,0.267-0.009,0.377c0.079,0.015,0.184,0.028,0.263,0.038c0.081,0.01,0.163,0.02,0.244,0.032
				c0.446,0.067,0.861,0.129,1.277,0.188c0.393,0.059,0.784,0.115,1.202,0.179l0.479,0.071l0.138,0.464
				c0.151,0.515,0.357,1.011,0.648,1.563l0.222,0.425l-0.286,0.385c-0.316,0.423-0.642,0.836-0.97,1.253
				c-0.173,0.222-0.348,0.444-0.523,0.67c-0.032,0.044-0.069,0.089-0.107,0.136c-0.047,0.057-0.124,0.149-0.168,0.216
				c0.02,0.026,0.048,0.059,0.071,0.085l0.087,0.104c0.666,0.822,1.421,1.511,2.22,2.237l0.186,0.172
				c0.021,0.021,0.046,0.043,0.067,0.063c0.049-0.036,0.133-0.108,0.188-0.154c0.062-0.052,0.119-0.102,0.175-0.144
				c0.661-0.513,1.298-0.992,2.006-1.513l0.403-0.296l0.433,0.254c0.241,0.144,0.545,0.26,0.865,0.381
				c0.196,0.076,0.396,0.153,0.586,0.236l0.392,0.172l0.056,0.424c0.077,0.574,0.163,1.114,0.251,1.655
				c0.045,0.273,0.088,0.547,0.131,0.826c0.016,0.101,0.024,0.21,0.034,0.32c0.005,0.05,0.011,0.113,0.017,0.171
				c0.096,0.008,0.289,0.007,0.476,0.002C477.302,45.586,477.407,45.583,477.511,45.583z M478.462,38.365L478.462,38.365
				c-1.306,0-2.439-0.463-3.472-1.416c-0.996-0.918-1.552-2.139-1.606-3.529c-0.075-1.895,0.76-3.027,1.396-3.716
				c0.936-1.013,2.097-1.537,3.556-1.606c0.082-0.004,0.164-0.006,0.245-0.006c1.31,0,2.583,0.523,3.497,1.438
				c0.728,0.726,1.562,1.785,1.57,3.55c0.009,1.516-0.461,2.725-1.433,3.696c-1.005,1.005-2.151,1.523-3.504,1.584
				C478.626,38.363,478.542,38.365,478.462,38.365z M478.579,29.611c-0.058,0-0.114,0.001-0.174,0.004
				c-1.067,0.052-1.843,0.396-2.511,1.119c-0.489,0.531-1.045,1.31-0.992,2.624c0.04,0.993,0.416,1.824,1.119,2.474
				c0.748,0.69,1.523,1.012,2.438,1.013h0.001c0.059,0,0.118-0.001,0.18-0.004c0.97-0.044,1.764-0.406,2.498-1.142
				c0.688-0.688,0.993-1.494,0.986-2.612c-0.007-1.201-0.544-1.903-1.125-2.482C480.702,30.305,479.87,29.611,478.579,29.611z"/>
		</g>
	</g>
</g>
<g>
	<g>
		<g>
			<g>
				<path fill="#848383" d="M42.043,382.421H40.84v-5.771h3.309v1.002h-2.104v1.488h1.958v0.999h-1.958L42.043,382.421
					L42.043,382.421z"/>
				<path fill="#848383" d="M46.5,380.206v2.215h-1.224v-5.771h1.682c0.783,0,1.364,0.144,1.74,0.428
					c0.376,0.285,0.564,0.72,0.564,1.302c0,0.34-0.095,0.642-0.28,0.905c-0.188,0.265-0.451,0.472-0.793,0.621
					c0.868,1.298,1.434,2.137,1.697,2.516h-1.358l-1.377-2.215H46.5L46.5,380.206z M46.5,379.212h0.396
					c0.387,0,0.672-0.064,0.855-0.193c0.185-0.129,0.276-0.331,0.276-0.608c0-0.272-0.094-0.468-0.282-0.584
					c-0.188-0.114-0.479-0.174-0.874-0.174H46.5V379.212z"/>
				<path fill="#848383" d="M55.851,379.527c0,0.955-0.236,1.689-0.71,2.203c-0.475,0.513-1.153,0.77-2.037,0.77
					s-1.563-0.257-2.036-0.77c-0.476-0.514-0.711-1.25-0.711-2.211s0.237-1.693,0.713-2.2c0.475-0.507,1.155-0.76,2.042-0.76
					s1.565,0.255,2.035,0.766C55.617,377.836,55.851,378.57,55.851,379.527z M51.64,379.527c0,0.646,0.122,1.131,0.365,1.457
					c0.245,0.326,0.611,0.489,1.099,0.489c0.977,0,1.465-0.648,1.465-1.946c0-1.3-0.486-1.949-1.457-1.949
					c-0.486,0-0.854,0.164-1.101,0.491C51.763,378.396,51.64,378.883,51.64,379.527z"/>
				<path fill="#848383" d="M59.49,382.421l-1.39-4.527h-0.035c0.05,0.921,0.074,1.536,0.074,1.843v2.686h-1.094v-5.771h1.665
					l1.366,4.412H60.1l1.447-4.412h1.666v5.771h-1.141v-2.731c0-0.129,0.002-0.277,0.006-0.445c0.004-0.169,0.021-0.615,0.054-1.343
					h-0.035l-1.487,4.521h-1.12V382.421z"/>
			</g>
			<path fill="#848383" d="M68.901,362.534H61.72v-1.08c0-0.604-0.491-1.096-1.098-1.096c-0.605,0-1.097,0.49-1.097,1.096v1.08
				h-6.402v-1.08c0-0.604-0.492-1.096-1.097-1.096c-0.605,0-1.096,0.49-1.096,1.096v1.08H44.8v-1.08
				c0-0.604-0.491-1.096-1.097-1.096c-0.604,0-1.097,0.49-1.097,1.096v1.08h-7.453c-0.606,0-1.097,0.492-1.097,1.098v24.767
				c0,0.605,0.489,1.096,1.097,1.096h28.825h2.121H68.9c0.604,0,1.095-0.489,1.095-1.096v-24.767
				C69.998,363.027,69.507,362.534,68.901,362.534z M67.806,387.303h-1.705H63.98H36.25v-15.9h31.557V387.303z M67.806,369.21H36.25
				v-4.481h6.357v0.99c0,0.604,0.491,1.096,1.097,1.096c0.604,0,1.097-0.49,1.097-1.096v-0.99h6.132v0.99
				c0,0.604,0.489,1.096,1.096,1.096c0.604,0,1.097-0.49,1.097-1.096v-0.99h6.402v0.99c0,0.604,0.491,1.096,1.097,1.096
				c0.606,0,1.098-0.49,1.098-1.096v-0.99h6.086L67.806,369.21L67.806,369.21z"/>
		</g>
	</g>
	<g>
		<g>
			<g>
				<path fill="#848383" d="M111.658,384.493h-1.238v-4.813h-1.588v-1.033h4.414v1.033h-1.588V384.493L111.658,384.493z"/>
				<path fill="#848383" d="M119.451,381.564c0,0.967-0.24,1.711-0.72,2.23c-0.48,0.52-1.167,0.779-2.063,0.779
					c-0.896,0-1.583-0.261-2.063-0.779c-0.479-0.521-0.721-1.267-0.721-2.239c0-0.974,0.24-1.716,0.723-2.229
					c0.479-0.513,1.171-0.77,2.067-0.77c0.899,0,1.585,0.259,2.063,0.775C119.214,379.85,119.451,380.594,119.451,381.564z
					 M115.186,381.564c0,0.652,0.123,1.145,0.372,1.475c0.247,0.331,0.616,0.496,1.11,0.496c0.989,0,1.483-0.657,1.483-1.971
					c0-1.317-0.491-1.976-1.478-1.976c-0.491,0-0.863,0.166-1.114,0.498C115.311,380.418,115.186,380.909,115.186,381.564z"/>
			</g>
		</g>
		<path fill="#848383" d="M131.39,364.034h-7.274v-1.095c0-0.613-0.497-1.11-1.11-1.11c-0.611,0-1.109,0.497-1.109,1.11v1.095
			h-6.486v-1.095c0-0.613-0.497-1.11-1.11-1.11c-0.612,0-1.109,0.497-1.109,1.11v1.095h-6.21v-1.095c0-0.613-0.497-1.11-1.11-1.11
			s-1.11,0.497-1.11,1.11v1.095h-7.551c-0.612,0-1.109,0.498-1.109,1.11v25.087c0,0.613,0.497,1.11,1.109,1.11h29.198h2.149h2.836
			c0.612,0,1.109-0.497,1.109-1.11v-25.087C132.5,364.532,132.003,364.034,131.39,364.034z M130.279,389.121h-1.726h-2.149H98.316
			v-16.104h31.963V389.121z M130.279,370.796H98.316v-4.54h6.439v1.004c0,0.611,0.497,1.108,1.11,1.108s1.11-0.497,1.11-1.108
			v-1.004h6.21v1.004c0,0.611,0.497,1.108,1.109,1.108c0.613,0,1.11-0.497,1.11-1.108v-1.004h6.486v1.004
			c0,0.611,0.498,1.108,1.109,1.108c0.613,0,1.11-0.497,1.11-1.108v-1.004h6.164v4.54H130.279z"/>
	</g>
</g>
<g id="Sign_Out_1_">
	<g>
		<path fill="#8B8A8A" d="M51.174,417.958l-5.22,5.101l-0.808-0.805l-4.359-4.296c-0.326-0.323-0.854-0.323-1.18,0
			c-0.327,0.322-0.327,0.846,0,1.169l5.783,5.699c0.321,0.319,0.858,0.322,1.18,0.001l5.784-5.7c0.326-0.324,0.325-0.848,0-1.169
			C52.028,417.635,51.5,417.635,51.174,417.958z"/>
	</g>
</g>
<g>
	<g>
		<g>
			<path fill="#DCDBDB" d="M358.896,239.715c-27.292,0-49.496-22.204-49.496-49.496s22.204-49.495,49.496-49.495
				s49.496,22.203,49.496,49.495S386.188,239.715,358.896,239.715z M358.896,142.724c-26.189,0-47.496,21.307-47.496,47.495
				c0,26.189,21.307,47.496,47.496,47.496c26.188,0,47.496-21.307,47.496-47.496C406.392,164.031,385.085,142.724,358.896,142.724z"
				/>
		</g>
		<g>
			<path fill="#DCDBDB" d="M389.566,189.877l-6.794-7.926l6.794-7.927c0.188-0.22,0.269-0.513,0.218-0.799
				c-0.052-0.286-0.229-0.533-0.481-0.674l-21.995-12.219c-0.374-0.208-0.843-0.145-1.148,0.159l-6.681,6.621l-6.62-6.619
				c-0.31-0.31-0.788-0.372-1.166-0.152l-23.217,13.441c-0.271,0.155-0.449,0.435-0.479,0.745c-0.028,0.313,0.096,0.618,0.334,0.822
				l7.867,6.742l-6.789,9.053c-0.168,0.224-0.229,0.507-0.172,0.78c0.058,0.272,0.229,0.507,0.476,0.643l6.765,3.759
				c-0.029,0.092-0.059,0.185-0.059,0.285v8.935c0,1.18,0.636,2.281,1.658,2.874l19.652,11.346c0.527,0.305,1.121,0.457,1.714,0.457
				c0.006,0,0.012-0.001,0.018-0.001c0.005,0,0.011,0.003,0.016,0.003c0.011,0,0.019-0.006,0.028-0.006
				c0.572-0.01,1.145-0.159,1.654-0.453l19.592-11.312c1.06-0.613,1.718-1.754,1.718-2.978v-9.952l6.869-4.197
				c0.241-0.148,0.406-0.396,0.45-0.675C389.831,190.377,389.75,190.091,389.566,189.877z M358.508,192.512l-19.079-10.601
				l19.079-11.66V192.512z M360.44,170.212l19.145,11.699l-19.145,10.637V170.212z M367.003,162.375l20.326,11.292l-6.025,7.03
				l-20.281-12.395L367.003,162.375z M352.016,162.386l5.938,5.939l-20.35,12.436l-6.985-5.987L352.016,162.386z M337.779,183.205
				l20.249,11.25l-6.124,8.235l-20.287-11.271L337.779,183.205z M339.042,206.75c-0.428-0.248-0.692-0.708-0.692-1.202v-8.179
				l13.355,7.421c0.148,0.082,0.31,0.121,0.468,0.121c0.299,0,0.59-0.138,0.776-0.39l5.559-7.477v20.941L339.042,206.75z
				 M380.536,205.48c0,0.535-0.289,1.035-0.753,1.306l-19.343,11.167v-20.928l5.626,7.5c0.188,0.252,0.478,0.388,0.771,0.388
				c0.173,0,0.348-0.047,0.503-0.142l13.194-8.063L380.536,205.48L380.536,205.48z M367.084,202.665l-6.142-8.188l20.338-11.3
				l6.081,7.094L367.084,202.665z"/>
		</g>
	</g>
</g>
<g>
	<g>
		<g>
			
				<rect x="99.295" y="420.969" transform="matrix(-0.7071 -0.7071 0.7071 -0.7071 -119.2497 793.4044)" fill="#5C5C5C" width="10.8" height="0.861"/>
		</g>
		<g>
			
				<rect x="104.262" y="415.998" transform="matrix(-0.7071 -0.7071 0.7071 -0.7071 -119.2517 793.3998)" fill="#5C5C5C" width="0.86" height="10.799"/>
		</g>
	</g>
</g>
<g id="Sign_Out_2_">
	<path fill="#5C5C5C" d="M82.796,417.786l-3.901,3.814l-0.604-0.602l-3.26-3.213c-0.244-0.239-0.638-0.239-0.882,0
		c-0.244,0.242-0.244,0.634,0,0.875l4.325,4.263c0.239,0.237,0.642,0.239,0.882,0l4.325-4.263c0.243-0.241,0.242-0.633,0-0.875
		C83.436,417.547,83.041,417.547,82.796,417.786z"/>
</g>
<g>
	<path fill="#010101" d="M49.243,441.519H46.8v-1.646c0-0.188-0.144-0.338-0.333-0.354l-0.088,0.091l-0.092-0.092h-5.361
		c-0.202,0-0.355,0.153-0.355,0.354v1.646h-2.451c-0.554,0-0.988,0.435-0.988,0.988v1.726h1.007v10.969
		c0,0.559,0.421,0.979,0.979,0.979h9.13c0.563,0,0.988-0.421,0.988-0.979v-10.969h0.996v-1.726
		C50.23,441.952,49.796,441.519,49.243,441.519z M41.282,440.228h4.798v1.291h-4.798V440.228z M48.513,455.2
		c0,0.162-0.105,0.268-0.268,0.268h-9.13c-0.162,0-0.268-0.104-0.268-0.268v-10.969h9.665V455.2z M49.51,443.521H37.852v-1.015
		c0-0.166,0.106-0.277,0.268-0.277h11.124c0.16,0,0.268,0.111,0.268,0.277v1.015H49.51z"/>
	<rect x="45.783" y="445.812" fill="#010101" width="0.721" height="8.375"/>
	<rect x="43.331" y="445.812" fill="#010101" width="0.72" height="8.375"/>
	<rect x="40.877" y="445.812" fill="#010101" width="0.722" height="8.375"/>
</g>
<g>
	<g>
		<path fill="#FFFFFF" d="M82.069,457.459H70.153c-1.62,0-2.938-1.318-2.938-2.938v-12.459c0-1.619,1.317-2.938,2.938-2.938h11.916
			c1.62,0,2.938,1.317,2.938,2.938v12.459C85.007,456.141,83.689,457.459,82.069,457.459z M70.153,440.124
			c-1.068,0-1.938,0.869-1.938,1.938v12.459c0,1.068,0.869,1.938,1.938,1.938h11.916c1.068,0,1.938-0.869,1.938-1.938v-12.459
			c0-1.068-0.868-1.938-1.938-1.938H70.153z"/>
	</g>
	<g>
		<polygon fill="#FFFFFF" points="75,452.999 70.555,448.956 71.9,447.478 74.787,450.103 80.119,443.584 81.668,444.851 		"/>
	</g>
</g>
<g>
	<path fill="#FFFFFF" d="M113.069,457.459h-11.916c-1.62,0-2.938-1.318-2.938-2.938v-12.459c0-1.619,1.317-2.938,2.938-2.938h11.916
		c1.62,0,2.938,1.317,2.938,2.938v12.459C116.007,456.141,114.689,457.459,113.069,457.459z M101.153,440.124
		c-1.068,0-1.938,0.869-1.938,1.938v12.459c0,1.068,0.869,1.938,1.938,1.938h11.916c1.068,0,1.938-0.869,1.938-1.938v-12.459
		c0-1.068-0.868-1.938-1.938-1.938H101.153z"/>
</g>
<g>
	<path fill="#FFFFFF" d="M33.244,475.639c0.207,0,0.374-0.166,0.374-0.373c0-0.238,0.194-0.435,0.433-0.435h1.829l1.446,1.58
		c0.07,0.078,0.171,0.123,0.275,0.123h4.844c0.239,0,0.435,0.193,0.435,0.435c0,0.205,0.166,0.371,0.372,0.371
		s0.372-0.166,0.372-0.371c0-0.65-0.527-1.181-1.179-1.181h-4.68l-1.446-1.579c-0.071-0.076-0.172-0.121-0.276-0.121h-1.992
		c-0.648,0-1.178,0.528-1.178,1.178C32.873,475.473,33.039,475.639,33.244,475.639z"/>
	<path fill="#FFFFFF" d="M42.445,477.204h-4.68l-1.447-1.58c-0.071-0.077-0.171-0.12-0.275-0.12h-1.992
		c-0.648,0-1.178,0.528-1.178,1.178v4.197c0,0.204,0.166,0.373,0.371,0.373c0.207,0,0.374-0.169,0.374-0.373v-4.197
		c0-0.238,0.194-0.435,0.433-0.435h1.829l1.447,1.582c0.07,0.076,0.171,0.121,0.274,0.121h4.844c0.239,0,0.435,0.193,0.435,0.433
		v4.854c0,0.24-0.194,0.437-0.435,0.437H34.05c-0.237,0-0.433-0.195-0.433-0.437c0-0.205-0.167-0.371-0.374-0.371
		c-0.205,0-0.371,0.166-0.371,0.371c0,0.65,0.528,1.181,1.178,1.181h8.396c0.65,0,1.179-0.529,1.179-1.181v-4.854
		C43.624,477.734,43.096,477.204,42.445,477.204z"/>
</g>
<g>
	<path fill="#FFFFFF" d="M61.111,476.064h-5.253c-0.596,0-1.08,0.484-1.08,1.08v7.537c0,0.596,0.484,1.08,1.08,1.08h5.253
		c0.596,0,1.08-0.484,1.08-1.08v-7.538C62.188,476.549,61.704,476.064,61.111,476.064z M55.774,477.145
		c0-0.045,0.037-0.082,0.082-0.082h5.253c0.045,0,0.082,0.037,0.082,0.082v7.535c0,0.045-0.037,0.082-0.082,0.082h-5.253
		c-0.045,0-0.082-0.037-0.082-0.082V477.145z"/>
	<path fill="#FFFFFF" d="M63.12,474.088h-5.253c-0.596,0-1.08,0.483-1.08,1.08c0,0.274,0.225,0.499,0.499,0.499
		c0.275,0,0.499-0.225,0.499-0.499c0-0.046,0.037-0.082,0.082-0.082h5.253c0.045,0,0.082,0.036,0.082,0.082v7.536
		c0,0.045-0.037,0.082-0.082,0.082c-0.274,0-0.499,0.225-0.499,0.499c0,0.275,0.225,0.499,0.499,0.499c0.596,0,1.08-0.483,1.08-1.08
		v-7.536C64.2,474.572,63.716,474.088,63.12,474.088z"/>
</g>
<g>
	<path fill="#FFFFFF" d="M86.695,478.434c-0.837-2.599-3.236-4.346-5.97-4.346c-0.649,0-1.294,0.102-1.917,0.303
		c-1.592,0.513-2.89,1.616-3.652,3.106c-0.765,1.492-0.903,3.189-0.392,4.779c0.056,0.172,0.213,0.286,0.393,0.286
		c0.043,0,0.085-0.007,0.126-0.02c0.104-0.034,0.19-0.106,0.24-0.204c0.051-0.099,0.061-0.21,0.025-0.314
		c-0.444-1.382-0.323-2.854,0.34-4.151c0.663-1.295,1.791-2.253,3.173-2.697c0.541-0.175,1.101-0.265,1.665-0.265
		c2.374,0,4.457,1.519,5.185,3.775c0.445,1.381,0.324,2.855-0.34,4.15s-1.791,2.254-3.172,2.698
		c-0.545,0.177-1.108,0.265-1.677,0.265c-1.438,0-2.8-0.562-3.828-1.581c-0.156-0.155-0.429-0.153-0.583,0.003
		c-0.16,0.161-0.158,0.423,0.003,0.583c1.186,1.174,2.75,1.819,4.407,1.819c0.653,0,1.304-0.103,1.931-0.304
		c1.591-0.514,2.888-1.617,3.652-3.107C87.068,481.722,87.208,480.025,86.695,478.434z"/>
	<path fill="#FFFFFF" d="M83.14,479.465c0.155-0.162,0.149-0.422-0.017-0.581l-1.964-1.765c-0.076-0.072-0.176-0.112-0.291-0.112
		l0,0c-0.109,0.002-0.211,0.046-0.285,0.124l-1.837,1.871c-0.155,0.162-0.148,0.422,0.015,0.577c0.156,0.15,0.432,0.143,0.575-0.012
		l1.157-1.17l0.148,5.084c0.006,0.221,0.188,0.399,0.408,0.399h0.01c0.225-0.005,0.403-0.192,0.399-0.419l-0.148-5.091l1.251,1.105
		C82.719,479.628,82.991,479.622,83.14,479.465z M81.052,483.717L81.052,483.717v0.002V483.717z"/>
</g>
<g>
	<path fill="#FFFFFF" d="M101.971,474.088c-0.229,0-0.412,0.186-0.412,0.411c0,0.229,0.185,0.412,0.412,0.412
		c3.002,0,5.442,2.441,5.442,5.443s-2.44,5.443-5.442,5.443c-3.001,0-5.443-2.441-5.443-5.443c0-2.043,1.128-3.895,2.942-4.836
		c0.2-0.104,0.279-0.354,0.176-0.555c-0.103-0.195-0.358-0.279-0.557-0.179c-2.089,1.084-3.387,3.218-3.387,5.568
		c0,3.455,2.813,6.268,6.269,6.268c3.456,0,6.268-2.813,6.268-6.268S105.427,474.088,101.971,474.088z"/>
	<path fill="#FFFFFF" d="M104.462,477.079c-0.721-0.549-1.582-0.84-2.49-0.84c-2.27,0-4.114,1.847-4.114,4.115
		s1.846,4.115,4.114,4.115c1.1,0,2.133-0.429,2.909-1.205c0.16-0.16,0.16-0.422,0-0.584c-0.155-0.154-0.428-0.154-0.583,0
		c-0.62,0.623-1.447,0.965-2.326,0.965c-1.814,0-3.29-1.477-3.29-3.291s1.476-3.291,3.29-3.291c1.454,0,2.755,0.975,3.159,2.371
		c0.052,0.174,0.215,0.297,0.396,0.297c0.039,0,0.077-0.006,0.115-0.016c0.105-0.031,0.192-0.103,0.247-0.197
		c0.053-0.098,0.063-0.209,0.033-0.314C105.68,478.366,105.161,477.613,104.462,477.079z"/>
	<path fill="#FFFFFF" d="M104.999,479.488c-0.154-0.156-0.426-0.156-0.583,0c-0.16,0.16-0.16,0.422,0,0.582l0.936,0.935
		c0.077,0.077,0.183,0.12,0.292,0.12c0.108,0,0.213-0.043,0.291-0.118l0.935-0.937c0.077-0.076,0.12-0.18,0.12-0.291
		c0-0.108-0.043-0.213-0.12-0.291c-0.155-0.156-0.427-0.156-0.583,0l-0.643,0.644L104.999,479.488z"/>
</g>
<g>
	<path fill="#FFFFFF" d="M174.983,265.601c2.324,0,4.594-1.411,6.391-3.972c1.586-2.26,2.532-5.054,2.532-7.474
		c0-4.921-4.003-8.924-8.923-8.924c-4.921,0-8.924,4.003-8.924,8.924c0,2.42,0.947,5.214,2.533,7.474
		C170.388,264.19,172.658,265.601,174.983,265.601z M174.983,246.686c4.118,0,7.469,3.35,7.469,7.469c0,2.101-0.87,4.644-2.27,6.638
		c-1.495,2.13-3.39,3.353-5.199,3.353c-1.811,0-3.706-1.222-5.2-3.353c-1.399-1.994-2.269-4.537-2.269-6.638
		C167.514,250.036,170.864,246.686,174.983,246.686z"/>
	<path fill="#FFFFFF" d="M178.736,283.231c-0.008-0.017-0.007-0.013-0.004-0.004c-0.036-0.086-0.088-0.166-0.155-0.23
		c-0.273-0.281-0.754-0.282-1.028,0c-0.407,0.395-0.188,1.1,0.354,1.223c0.568,0.129,1.043-0.45,0.833-0.983
		C178.74,283.244,178.743,283.251,178.736,283.231z"/>
	<path fill="#FFFFFF" d="M168.487,265.494c1.944,1.791,4.18,2.733,6.496,2.733c2.315,0,4.552-0.943,6.496-2.733
		c1.145,0.596,2.196,1.362,3.138,2.248c0.451-0.253,0.973-0.43,1.563-0.508c-1.298-1.351-2.833-2.472-4.522-3.275
		c-0.278-0.132-0.608-0.076-0.826,0.142c-1.753,1.749-3.776,2.673-5.849,2.673c-2.074,0-4.096-0.924-5.848-2.673
		c-0.218-0.217-0.549-0.274-0.827-0.142c-2.616,1.246-4.83,3.193-6.402,5.634c-1.616,2.505-2.469,5.414-2.469,8.408v0.013
		c0,0.204,0.087,0.401,0.239,0.539c4.197,3.807,9.634,5.905,15.307,5.905c0.3,0,0.603-0.006,0.9-0.019
		c0.401-0.015,0.714-0.354,0.698-0.755c-0.016-0.401-0.355-0.714-0.755-0.698c-0.279,0.011-0.563,0.017-0.843,0.017
		c-5.202,0-10.191-1.884-14.087-5.311c0.057-2.605,0.827-5.127,2.233-7.311C164.464,268.307,166.309,266.627,168.487,265.494z"/>
	<g>
		<path fill="#FFFFFF" d="M197.448,275.397c-0.223-0.667-0.88-0.752-1.193-0.792l-0.114-0.016c-0.226-0.034-0.451-0.069-0.678-0.106
			c-0.159-0.025-0.318-0.051-0.477-0.076c-0.045-0.114-0.093-0.226-0.142-0.334c0.097-0.127,0.197-0.255,0.309-0.4l0.032-0.041
			c0.108-0.138,0.219-0.279,0.331-0.428l0.054-0.067c0.116-0.142,0.291-0.355,0.36-0.65c0.133-0.573-0.19-0.957-0.355-1.155
			c-0.351-0.426-0.717-0.779-1.069-1.12l-0.307-0.301c-0.255-0.261-0.492-0.485-0.799-0.578c-0.112-0.035-0.228-0.052-0.342-0.052
			c-0.454,0-0.755,0.267-0.933,0.422l-0.054,0.045c-0.304,0.234-0.618,0.464-0.918,0.684c-0.08-0.034-0.159-0.065-0.24-0.095
			l-0.181-1.179c-0.005-0.033-0.008-0.069-0.014-0.127c-0.015-0.176-0.036-0.394-0.138-0.612c-0.299-0.628-0.987-0.628-1.246-0.628
			l-1.632,0.004c-0.066,0-0.133-0.003-0.2-0.005c-0.207-0.009-0.409-0.009-0.567,0.012c-0.814,0.108-0.957,0.895-1.01,1.189
			l-0.016,0.087c-0.072,0.375-0.125,0.785-0.177,1.193l-0.008,0.069c-0.079,0.032-0.158,0.066-0.239,0.101
			c-0.125-0.098-0.25-0.196-0.375-0.294l-0.091-0.072c-0.153-0.12-0.307-0.243-0.458-0.358l-0.06-0.049
			c-0.171-0.142-0.457-0.378-0.892-0.384c-0.398,0-0.667,0.21-0.844,0.347c-0.599,0.458-1.089,0.992-1.5,1.453l-0.077,0.084
			c-0.198,0.209-0.498,0.525-0.548,0.985c-0.051,0.471,0.257,0.813,0.421,0.996l0.119,0.142c0.221,0.271,0.432,0.529,0.624,0.793
			c-0.041,0.092-0.079,0.185-0.118,0.281c-0.193,0.028-0.387,0.057-0.581,0.087l-0.711,0.104c-0.184,0.02-0.414,0.044-0.634,0.159
			c-0.625,0.324-0.612,0.992-0.604,1.391l0.002,1.515c0,0.056-0.003,0.116-0.006,0.178c-0.009,0.207-0.02,0.44,0.038,0.67
			c0.187,0.742,0.896,0.828,1.203,0.865l1.273,0.186c0.043,0.116,0.093,0.232,0.145,0.349c-0.11,0.144-0.223,0.286-0.335,0.429
			l-0.39,0.497c-0.134,0.163-0.335,0.408-0.384,0.737c-0.079,0.54,0.202,0.869,0.337,1.026l0.036,0.043
			c0.485,0.599,1,1.069,1.552,1.572l0.101,0.094c0.145,0.137,0.412,0.391,0.867,0.391c0.085,0,0.173-0.01,0.262-0.028
			c0.31-0.066,0.528-0.255,0.689-0.392l0.05-0.042c0.305-0.235,0.6-0.461,0.912-0.692c0.079,0.032,0.158,0.063,0.237,0.092
			c0.03,0.197,0.06,0.39,0.092,0.583l0.097,0.611c0.005,0.04,0.01,0.081,0.013,0.125c0.014,0.168,0.034,0.399,0.142,0.62
			c0.301,0.614,0.992,0.614,1.22,0.614c0.065,0,0.133-0.002,0.201-0.004l1.473-0.002c0.067,0,0.135,0.003,0.204,0.007
			c0.085,0.003,0.167,0.006,0.248,0.006c0.118,0,0.222-0.007,0.317-0.022c0.764-0.115,0.91-0.824,0.974-1.125
			c0.093-0.453,0.147-0.896,0.199-1.332l0.009-0.079c0.082-0.032,0.161-0.065,0.238-0.099l0.357,0.281
			c0.175,0.139,0.352,0.277,0.531,0.417l0.063,0.053c0.146,0.123,0.368,0.31,0.68,0.379c0.083,0.018,0.167,0.027,0.248,0.027
			c0.403,0,0.672-0.21,0.849-0.348c0.113-0.087,0.225-0.18,0.339-0.283c0.601-0.539,1.022-0.978,1.442-1.503
			c0.12-0.146,0.299-0.368,0.333-0.686c0.06-0.545-0.262-0.885-0.418-1.051c-0.019-0.019-0.037-0.037-0.053-0.057l-0.038-0.048
			c-0.222-0.277-0.449-0.563-0.652-0.841c0.039-0.087,0.075-0.175,0.11-0.264c0.352-0.051,0.704-0.104,1.059-0.159l0.122-0.019
			c0.038-0.005,0.079-0.01,0.12-0.014c0.181-0.021,0.406-0.046,0.622-0.154c0.641-0.324,0.628-1.005,0.622-1.414l-0.001-1.516
			c0-0.052,0.001-0.109,0.004-0.168C197.518,275.899,197.527,275.632,197.448,275.397z M196.043,277.845
			c0,0.027,0.001,0.057,0.001,0.088c-0.042,0.005-0.082,0.01-0.119,0.016l-0.123,0.018c-0.491,0.075-0.978,0.149-1.466,0.217
			l-0.42,0.06l-0.239,0.598c-0.1,0.257-0.196,0.5-0.31,0.701l-0.222,0.391l0.248,0.376c0.285,0.43,0.628,0.86,0.96,1.277l0.19-0.152
			l-0.146,0.207c0.017,0.021,0.036,0.043,0.057,0.067c-0.325,0.399-0.687,0.771-1.194,1.226c-0.062,0.055-0.131,0.116-0.211,0.179
			c-0.033-0.026-0.063-0.052-0.09-0.073l-0.622-0.489c-0.207-0.164-0.413-0.325-0.619-0.486l-0.364-0.284l-0.414,0.206
			c-0.269,0.133-0.563,0.27-0.887,0.367l-0.455,0.134l-0.063,0.471c-0.024,0.179-0.045,0.355-0.072,0.576
			c-0.046,0.396-0.092,0.769-0.17,1.151c-0.014,0-0.029,0-0.045-0.001c-0.087-0.004-0.176-0.008-0.266-0.008h-1.299
			c-0.071,0-0.141,0.002-0.21,0.003l-0.077,0.001c-0.004-0.038-0.008-0.076-0.015-0.112l-0.083-0.532
			c-0.056-0.346-0.111-0.69-0.16-1.057l-0.054-0.408l-0.378-0.167c-0.125-0.056-0.257-0.105-0.388-0.156
			c-0.187-0.072-0.38-0.146-0.519-0.228l-0.417-0.246l-0.39,0.287c-0.457,0.335-0.868,0.646-1.293,0.976
			c-0.024,0.018-0.05,0.038-0.076,0.06l-0.013-0.013c-0.495-0.45-0.962-0.877-1.375-1.38l0.394-0.501
			c0.212-0.269,0.422-0.537,0.626-0.81l0.277-0.372l-0.215-0.409c-0.179-0.34-0.306-0.646-0.398-0.96l-0.131-0.448l-1.238-0.184
			c-0.267-0.039-0.533-0.078-0.818-0.121l-0.114-0.016c0-0.006,0-0.012,0-0.02c0.004-0.084,0.006-0.167,0.006-0.244l-0.001-1.551
			c-0.001-0.02-0.001-0.042-0.002-0.064c0.037-0.005,0.072-0.01,0.108-0.014l0.463-0.071c0.376-0.056,0.752-0.114,1.125-0.165
			l0.432-0.061l0.154-0.409c0.127-0.342,0.244-0.646,0.389-0.907l0.208-0.379l-0.232-0.367c-0.292-0.461-0.613-0.854-0.953-1.271
			l-0.08-0.097c-0.01-0.012-0.02-0.023-0.031-0.037c0.018-0.019,0.035-0.037,0.048-0.051l0.108-0.117
			c0.371-0.417,0.771-0.854,1.249-1.228l0.049,0.041c0.158,0.121,0.311,0.243,0.485,0.381c0.271,0.213,0.54,0.426,0.817,0.632
			l0.367,0.273l0.406-0.21c0.312-0.162,0.59-0.278,0.874-0.364l0.444-0.137l0.066-0.461c0.024-0.166,0.047-0.345,0.07-0.54
			c0.048-0.373,0.097-0.758,0.161-1.091l0.019-0.102c0.023,0,0.048,0.001,0.076,0.003c0.086,0.003,0.173,0.007,0.258,0.007
			l1.565-0.002c0.004,0.04,0.008,0.08,0.015,0.119l0.311,2.024l0.583,0.225l0.086-0.229l-0.036,0.248
			c0.238,0.088,0.461,0.172,0.631,0.272l0.416,0.244l0.709-0.521c0.32-0.233,0.658-0.48,0.982-0.73
			c0.029-0.023,0.06-0.048,0.09-0.074c0.039,0.04,0.076,0.078,0.103,0.104l0.329,0.322c0.329,0.318,0.64,0.619,0.931,0.967
			c-0.025,0.031-0.05,0.063-0.072,0.092c-0.118,0.155-0.232,0.303-0.354,0.457c-0.195,0.25-0.396,0.508-0.598,0.796l-0.247,0.354
			l0.191,0.388c0.153,0.311,0.298,0.618,0.398,0.957l0.134,0.455l0.469,0.065c0.292,0.041,0.587,0.088,0.893,0.136
			c0.232,0.038,0.463,0.075,0.695,0.109l0.119,0.016c0,0.011,0,0.021-0.001,0.032c-0.002,0.074-0.004,0.146-0.004,0.212
			L196.043,277.845z"/>
		<path fill="#FFFFFF" d="M188.37,273.426c-0.055,0-0.11,0.002-0.17,0.004c-1.004,0.048-1.808,0.413-2.454,1.111
			c-0.438,0.475-1.013,1.256-0.962,2.565c0.039,0.96,0.423,1.805,1.112,2.439c0.711,0.657,1.495,0.976,2.398,0.976
			c0.056,0,0.112-0.002,0.172-0.004c0.933-0.042,1.723-0.399,2.415-1.09c0.674-0.674,0.999-1.508,0.993-2.552
			c-0.007-1.223-0.582-1.955-1.083-2.454C190.158,273.789,189.276,273.426,188.37,273.426z M188.37,274.892
			c0.738,0,1.214,0.396,1.385,0.567c0.389,0.388,0.648,0.78,0.652,1.425c0.004,0.658-0.165,1.108-0.563,1.507
			c-0.428,0.426-0.886,0.637-1.447,0.663c-0.571,0.021-1.044-0.159-1.507-0.585c-0.403-0.371-0.619-0.849-0.642-1.42
			c-0.03-0.752,0.273-1.187,0.574-1.512c0.389-0.421,0.822-0.612,1.449-0.642C188.303,274.894,188.337,274.892,188.37,274.892z"/>
	</g>
	<path fill="#859FCE" d="M233.724,268.209c2.324,0,4.594-1.411,6.391-3.972c1.586-2.26,2.532-5.054,2.532-7.474
		c0-4.921-4.003-8.924-8.923-8.924c-4.921,0-8.924,4.003-8.924,8.924c0,2.42,0.947,5.214,2.533,7.474
		C229.13,266.798,231.4,268.209,233.724,268.209z M233.724,249.294c4.118,0,7.469,3.35,7.469,7.469c0,2.101-0.87,4.644-2.27,6.638
		c-1.495,2.13-3.39,3.353-5.199,3.353c-1.811,0-3.706-1.222-5.2-3.353c-1.399-1.994-2.269-4.537-2.269-6.638
		C226.256,252.644,229.606,249.294,233.724,249.294z"/>
	<path fill="#859FCE" d="M237.477,285.839c-0.008-0.017-0.007-0.013-0.004-0.004c-0.036-0.086-0.088-0.166-0.155-0.23
		c-0.273-0.281-0.754-0.282-1.028,0c-0.407,0.395-0.188,1.1,0.354,1.223c0.568,0.129,1.043-0.45,0.833-0.983
		C237.482,285.852,237.485,285.859,237.477,285.839z"/>
	<path fill="#859FCE" d="M227.228,268.102c1.944,1.791,4.18,2.733,6.496,2.733c2.315,0,4.552-0.943,6.496-2.733
		c1.145,0.596,2.196,1.362,3.138,2.248c0.451-0.253,0.973-0.43,1.563-0.508c-1.298-1.351-2.833-2.472-4.522-3.275
		c-0.278-0.132-0.608-0.076-0.826,0.142c-1.753,1.749-3.776,2.673-5.849,2.673c-2.074,0-4.096-0.924-5.848-2.673
		c-0.218-0.217-0.549-0.274-0.827-0.142c-2.616,1.246-4.83,3.193-6.402,5.634c-1.616,2.505-2.469,5.414-2.469,8.408v0.013
		c0,0.204,0.087,0.401,0.239,0.539c4.197,3.807,9.634,5.905,15.307,5.905c0.3,0,0.603-0.006,0.9-0.019
		c0.401-0.015,0.714-0.354,0.698-0.755c-0.016-0.401-0.355-0.714-0.755-0.698c-0.279,0.011-0.563,0.017-0.843,0.017
		c-5.202,0-10.191-1.884-14.087-5.311c0.057-2.605,0.827-5.127,2.233-7.311C223.206,270.915,225.051,269.235,227.228,268.102z"/>
	<g>
		<path fill="#859FCE" d="M256.19,278.005c-0.223-0.667-0.88-0.752-1.193-0.792l-0.114-0.016c-0.226-0.034-0.451-0.069-0.678-0.106
			c-0.159-0.025-0.318-0.051-0.477-0.076c-0.045-0.114-0.093-0.226-0.142-0.334c0.097-0.127,0.197-0.255,0.309-0.4l0.032-0.041
			c0.108-0.138,0.219-0.279,0.331-0.428l0.054-0.067c0.116-0.142,0.291-0.355,0.36-0.65c0.133-0.573-0.19-0.957-0.355-1.155
			c-0.351-0.426-0.717-0.779-1.069-1.12l-0.307-0.301c-0.255-0.261-0.492-0.485-0.799-0.578c-0.112-0.035-0.228-0.052-0.342-0.052
			c-0.454,0-0.755,0.267-0.933,0.422l-0.054,0.045c-0.304,0.234-0.618,0.464-0.918,0.684c-0.08-0.034-0.159-0.065-0.24-0.095
			l-0.181-1.179c-0.005-0.033-0.008-0.069-0.014-0.127c-0.015-0.176-0.036-0.394-0.138-0.612c-0.299-0.628-0.987-0.628-1.246-0.628
			l-1.632,0.004c-0.066,0-0.133-0.003-0.2-0.005c-0.207-0.009-0.409-0.009-0.567,0.012c-0.814,0.108-0.957,0.895-1.01,1.189
			l-0.016,0.087c-0.072,0.375-0.125,0.785-0.177,1.193l-0.008,0.069c-0.079,0.032-0.158,0.066-0.239,0.101
			c-0.125-0.098-0.25-0.196-0.375-0.294l-0.091-0.072c-0.153-0.12-0.307-0.243-0.458-0.358l-0.06-0.049
			c-0.171-0.142-0.457-0.378-0.892-0.384c-0.398,0-0.667,0.21-0.844,0.347c-0.599,0.458-1.089,0.992-1.5,1.453l-0.077,0.084
			c-0.198,0.209-0.498,0.525-0.548,0.985c-0.051,0.471,0.257,0.813,0.421,0.996l0.119,0.142c0.221,0.271,0.432,0.529,0.624,0.793
			c-0.041,0.092-0.079,0.185-0.118,0.281c-0.193,0.028-0.387,0.057-0.581,0.087l-0.711,0.104c-0.184,0.02-0.414,0.044-0.634,0.159
			c-0.625,0.324-0.612,0.992-0.604,1.391l0.002,1.515c0,0.056-0.003,0.116-0.006,0.178c-0.009,0.207-0.02,0.44,0.038,0.67
			c0.187,0.742,0.896,0.828,1.203,0.865l1.273,0.186c0.043,0.116,0.093,0.232,0.145,0.349c-0.11,0.144-0.223,0.286-0.335,0.429
			l-0.39,0.497c-0.134,0.163-0.335,0.408-0.384,0.737c-0.079,0.54,0.202,0.869,0.337,1.026l0.036,0.043
			c0.485,0.599,1,1.069,1.552,1.572l0.101,0.094c0.145,0.137,0.412,0.391,0.867,0.391c0.085,0,0.173-0.01,0.262-0.028
			c0.31-0.066,0.528-0.255,0.689-0.392l0.05-0.042c0.305-0.235,0.6-0.461,0.912-0.692c0.079,0.032,0.158,0.063,0.237,0.092
			c0.03,0.197,0.06,0.39,0.092,0.583l0.097,0.611c0.005,0.04,0.01,0.081,0.013,0.125c0.014,0.168,0.034,0.399,0.142,0.62
			c0.301,0.614,0.992,0.614,1.22,0.614c0.065,0,0.133-0.002,0.201-0.004l1.473-0.002c0.067,0,0.135,0.003,0.204,0.007
			c0.085,0.003,0.167,0.006,0.248,0.006c0.118,0,0.222-0.007,0.317-0.022c0.764-0.115,0.91-0.824,0.974-1.125
			c0.093-0.453,0.147-0.896,0.199-1.332l0.009-0.079c0.082-0.032,0.161-0.065,0.238-0.099l0.357,0.281
			c0.175,0.139,0.352,0.277,0.531,0.417l0.063,0.053c0.146,0.123,0.368,0.31,0.68,0.379c0.083,0.018,0.167,0.027,0.248,0.027
			c0.403,0,0.672-0.21,0.849-0.348c0.113-0.087,0.225-0.18,0.339-0.283c0.601-0.539,1.022-0.978,1.442-1.503
			c0.12-0.146,0.299-0.368,0.333-0.686c0.06-0.545-0.262-0.885-0.418-1.051c-0.019-0.019-0.037-0.037-0.053-0.057l-0.038-0.048
			c-0.222-0.277-0.449-0.563-0.652-0.841c0.039-0.087,0.075-0.175,0.11-0.264c0.352-0.051,0.704-0.104,1.059-0.159l0.122-0.019
			c0.038-0.005,0.079-0.01,0.12-0.014c0.181-0.021,0.406-0.046,0.622-0.154c0.641-0.324,0.628-1.005,0.622-1.414l-0.001-1.516
			c0-0.052,0.001-0.109,0.004-0.168C256.26,278.507,256.268,278.24,256.19,278.005z M254.784,280.453
			c0,0.027,0.001,0.057,0.001,0.088c-0.042,0.005-0.082,0.01-0.119,0.016l-0.123,0.018c-0.491,0.075-0.978,0.149-1.466,0.217
			l-0.42,0.06l-0.239,0.598c-0.1,0.257-0.196,0.5-0.31,0.701l-0.222,0.391l0.248,0.376c0.285,0.43,0.628,0.86,0.96,1.277l0.19-0.152
			l-0.146,0.207c0.017,0.021,0.036,0.043,0.057,0.067c-0.325,0.399-0.687,0.771-1.194,1.226c-0.062,0.055-0.131,0.116-0.211,0.179
			c-0.033-0.026-0.063-0.052-0.09-0.073l-0.622-0.489c-0.207-0.164-0.413-0.325-0.619-0.486l-0.364-0.284l-0.414,0.206
			c-0.269,0.133-0.563,0.27-0.887,0.367l-0.455,0.134l-0.063,0.471c-0.024,0.179-0.045,0.355-0.072,0.576
			c-0.046,0.396-0.092,0.769-0.17,1.151c-0.014,0-0.029,0-0.045-0.001c-0.087-0.004-0.176-0.008-0.266-0.008h-1.299
			c-0.071,0-0.141,0.002-0.21,0.003l-0.077,0.001c-0.004-0.038-0.008-0.076-0.015-0.112l-0.083-0.532
			c-0.056-0.346-0.111-0.69-0.16-1.057l-0.054-0.408l-0.378-0.167c-0.125-0.056-0.257-0.105-0.388-0.156
			c-0.187-0.072-0.38-0.146-0.519-0.228l-0.417-0.246l-0.39,0.287c-0.457,0.335-0.868,0.646-1.293,0.976
			c-0.024,0.018-0.05,0.038-0.076,0.06l-0.013-0.013c-0.495-0.45-0.962-0.877-1.375-1.38l0.394-0.501
			c0.212-0.269,0.422-0.537,0.626-0.81l0.277-0.372l-0.215-0.409c-0.179-0.34-0.306-0.646-0.398-0.96l-0.131-0.448l-1.238-0.184
			c-0.267-0.039-0.533-0.078-0.818-0.121l-0.114-0.016c0-0.006,0-0.012,0-0.02c0.004-0.084,0.006-0.167,0.006-0.244l-0.001-1.551
			c-0.001-0.02-0.001-0.042-0.002-0.064c0.037-0.005,0.072-0.01,0.108-0.014l0.463-0.071c0.376-0.056,0.752-0.114,1.125-0.165
			l0.432-0.061l0.154-0.409c0.127-0.342,0.244-0.646,0.389-0.907l0.208-0.379l-0.232-0.367c-0.292-0.461-0.613-0.854-0.953-1.271
			l-0.08-0.097c-0.01-0.012-0.02-0.023-0.031-0.037c0.018-0.019,0.035-0.037,0.048-0.051l0.108-0.117
			c0.371-0.417,0.771-0.854,1.249-1.228l0.049,0.041c0.158,0.121,0.311,0.243,0.485,0.381c0.271,0.213,0.54,0.426,0.817,0.632
			l0.367,0.273l0.406-0.21c0.312-0.162,0.59-0.278,0.874-0.364l0.444-0.137l0.066-0.461c0.024-0.166,0.047-0.345,0.07-0.54
			c0.048-0.373,0.097-0.758,0.161-1.091l0.019-0.102c0.023,0,0.048,0.001,0.076,0.003c0.086,0.003,0.173,0.007,0.258,0.007
			l1.565-0.002c0.004,0.04,0.008,0.08,0.015,0.119l0.311,2.024l0.583,0.225l0.086-0.229l-0.036,0.248
			c0.238,0.088,0.461,0.172,0.631,0.272l0.416,0.244l0.709-0.521c0.32-0.233,0.658-0.48,0.982-0.73
			c0.029-0.023,0.06-0.048,0.09-0.074c0.039,0.04,0.076,0.078,0.103,0.104l0.329,0.322c0.329,0.318,0.64,0.619,0.931,0.967
			c-0.025,0.031-0.05,0.063-0.072,0.092c-0.118,0.155-0.232,0.303-0.354,0.457c-0.195,0.25-0.396,0.508-0.598,0.796l-0.247,0.354
			l0.191,0.388c0.153,0.311,0.298,0.618,0.398,0.957l0.134,0.455l0.469,0.065c0.292,0.041,0.587,0.088,0.893,0.136
			c0.232,0.038,0.463,0.075,0.695,0.109l0.119,0.016c0,0.011,0,0.021-0.001,0.032c-0.002,0.074-0.004,0.146-0.004,0.212
			L254.784,280.453z"/>
		<path fill="#859FCE" d="M247.112,276.034c-0.055,0-0.11,0.002-0.17,0.004c-1.004,0.048-1.808,0.413-2.454,1.111
			c-0.438,0.475-1.013,1.256-0.962,2.565c0.039,0.96,0.423,1.805,1.112,2.439c0.711,0.657,1.495,0.976,2.398,0.976
			c0.056,0,0.112-0.002,0.172-0.004c0.933-0.042,1.723-0.399,2.415-1.09c0.674-0.674,0.999-1.508,0.993-2.552
			c-0.007-1.223-0.582-1.955-1.083-2.454C248.9,276.397,248.017,276.034,247.112,276.034z M247.112,277.5
			c0.738,0,1.214,0.396,1.385,0.567c0.389,0.388,0.648,0.78,0.652,1.425c0.004,0.658-0.165,1.108-0.563,1.507
			c-0.428,0.426-0.886,0.637-1.447,0.663c-0.571,0.021-1.044-0.159-1.507-0.585c-0.403-0.371-0.619-0.849-0.642-1.42
			c-0.03-0.752,0.273-1.187,0.574-1.512c0.389-0.421,0.822-0.612,1.449-0.642C247.045,277.502,247.079,277.5,247.112,277.5z"/>
	</g>
	<g>
		<path fill="#FFFFFF" d="M173.615,309.966c0,2.383,0.933,5.133,2.494,7.357c1.769,2.521,4.002,3.909,6.29,3.909
			c2.289,0,4.523-1.388,6.291-3.909c1.562-2.225,2.493-4.975,2.493-7.357c0-4.844-3.94-8.783-8.783-8.783
			C177.555,301.183,173.615,305.122,173.615,309.966z M182.399,302.615c4.054,0,7.352,3.298,7.352,7.351
			c0,2.069-0.855,4.572-2.233,6.535c-1.471,2.096-3.337,3.299-5.119,3.299c-1.781,0-3.646-1.203-5.119-3.299
			c-1.376-1.963-2.232-4.467-2.232-6.535C175.048,305.913,178.346,302.615,182.399,302.615z"/>
		<path fill="#FFFFFF" d="M195.271,325.16c-1.548-2.401-3.727-4.319-6.301-5.544c-0.274-0.13-0.598-0.074-0.813,0.139
			c-1.726,1.722-3.715,2.631-5.757,2.631c-2.041,0-4.031-0.908-5.755-2.631c-0.214-0.213-0.541-0.269-0.813-0.139
			c-2.575,1.225-4.754,3.143-6.302,5.544c-1.59,2.468-2.43,5.329-2.43,8.277v0.015c0,0.201,0.085,0.393,0.234,0.529
			c4.133,3.747,9.484,5.811,15.066,5.811c5.583,0,10.935-2.063,15.067-5.811c0.15-0.137,0.235-0.328,0.235-0.529v-0.015
			C197.701,330.49,196.861,327.628,195.271,325.16z M182.399,338.361c-5.119,0-10.031-1.855-13.866-5.229
			c0.057-2.563,0.813-5.044,2.199-7.193c1.315-2.042,3.13-3.695,5.273-4.811c1.914,1.762,4.115,2.689,6.394,2.689
			s4.479-0.928,6.395-2.689c2.142,1.115,3.958,2.769,5.273,4.809c1.386,2.151,2.143,4.632,2.199,7.195
			C192.43,336.507,187.519,338.361,182.399,338.361z"/>
		<path fill="#FFFFFF" d="M171.454,316.584c0.803,0,1.605-0.194,2.383-0.583c0.354-0.176,0.498-0.605,0.322-0.959
			c-0.175-0.355-0.605-0.498-0.959-0.322c-0.578,0.287-1.165,0.432-1.745,0.432c-1.504,0-3.085-1.021-4.333-2.804
			c-1.177-1.677-1.909-3.815-1.909-5.579c0-3.442,2.8-6.242,6.242-6.242c1.625,0,3.163,0.621,4.331,1.748
			c0.285,0.275,0.739,0.268,1.014-0.018c0.275-0.285,0.267-0.736-0.018-1.013c-1.438-1.387-3.33-2.15-5.327-2.15
			c-4.231,0-7.675,3.443-7.675,7.675c0,2.074,0.812,4.468,2.169,6.402C167.492,315.372,169.448,316.584,171.454,316.584z"/>
		<path fill="#FFFFFF" d="M164.329,329.946c-1.726-0.743-3.316-1.749-4.735-2.991c0.056-2.178,0.702-4.283,1.88-6.109
			c1.111-1.727,2.643-3.128,4.449-4.082c1.658,1.507,3.56,2.301,5.53,2.301c1.178,0,2.333-0.283,3.437-0.842
			c0.353-0.178,0.495-0.609,0.316-0.963c-0.179-0.352-0.609-0.494-0.962-0.314c-0.902,0.455-1.841,0.687-2.792,0.687
			c-1.733,0-3.426-0.774-4.895-2.241c-0.215-0.213-0.541-0.27-0.813-0.139c-2.238,1.064-4.13,2.73-5.475,4.817
			c-1.382,2.144-2.112,4.631-2.112,7.194v0.009c0,0.203,0.085,0.396,0.236,0.53c1.594,1.447,3.4,2.609,5.369,3.459
			c0.092,0.04,0.188,0.06,0.283,0.06c0.277,0,0.541-0.163,0.658-0.433C164.861,330.524,164.693,330.103,164.329,329.946z"/>
		<path fill="#FFFFFF" d="M166.369,330.716c-0.258-0.178-0.607-0.168-0.853,0.025c-0.249,0.194-0.338,0.544-0.218,0.836
			c0.108,0.266,0.376,0.442,0.662,0.442c0.318,0,0.604-0.22,0.689-0.525C166.731,331.205,166.615,330.886,166.369,330.716z"/>
	</g>
	<g>
		<path fill="#859FCE" d="M234.615,309.966c0,2.383,0.933,5.133,2.494,7.357c1.769,2.521,4.002,3.909,6.29,3.909
			c2.289,0,4.523-1.388,6.291-3.909c1.562-2.225,2.493-4.975,2.493-7.357c0-4.844-3.94-8.783-8.783-8.783
			C238.555,301.183,234.615,305.122,234.615,309.966z M243.399,302.615c4.054,0,7.352,3.298,7.352,7.351
			c0,2.069-0.855,4.572-2.233,6.535c-1.471,2.096-3.337,3.299-5.119,3.299c-1.781,0-3.646-1.203-5.119-3.299
			c-1.376-1.963-2.232-4.467-2.232-6.535C236.048,305.913,239.346,302.615,243.399,302.615z"/>
		<path fill="#859FCE" d="M256.271,325.16c-1.548-2.401-3.727-4.319-6.301-5.544c-0.274-0.13-0.598-0.074-0.813,0.139
			c-1.726,1.722-3.715,2.631-5.757,2.631c-2.041,0-4.031-0.908-5.755-2.631c-0.214-0.213-0.541-0.269-0.813-0.139
			c-2.575,1.225-4.754,3.143-6.302,5.544c-1.59,2.468-2.43,5.329-2.43,8.277v0.015c0,0.201,0.085,0.393,0.234,0.529
			c4.133,3.747,9.484,5.811,15.066,5.811c5.583,0,10.935-2.063,15.067-5.811c0.15-0.137,0.235-0.328,0.235-0.529v-0.015
			C258.701,330.49,257.861,327.628,256.271,325.16z M243.399,338.361c-5.119,0-10.031-1.855-13.866-5.229
			c0.057-2.563,0.813-5.044,2.199-7.193c1.315-2.042,3.13-3.695,5.273-4.811c1.914,1.762,4.115,2.689,6.394,2.689
			s4.479-0.928,6.395-2.689c2.142,1.115,3.958,2.769,5.273,4.809c1.386,2.151,2.143,4.632,2.199,7.195
			C253.43,336.507,248.519,338.361,243.399,338.361z"/>
		<path fill="#859FCE" d="M232.454,316.584c0.803,0,1.605-0.194,2.383-0.583c0.354-0.176,0.498-0.605,0.322-0.959
			c-0.175-0.355-0.605-0.498-0.959-0.322c-0.578,0.287-1.165,0.432-1.745,0.432c-1.504,0-3.085-1.021-4.333-2.804
			c-1.177-1.677-1.909-3.815-1.909-5.579c0-3.442,2.8-6.242,6.242-6.242c1.625,0,3.163,0.621,4.331,1.748
			c0.285,0.275,0.739,0.268,1.014-0.018c0.275-0.285,0.267-0.736-0.018-1.013c-1.438-1.387-3.33-2.15-5.327-2.15
			c-4.231,0-7.675,3.443-7.675,7.675c0,2.074,0.812,4.468,2.169,6.402C228.492,315.372,230.448,316.584,232.454,316.584z"/>
		<path fill="#859FCE" d="M225.329,329.946c-1.726-0.743-3.316-1.749-4.735-2.991c0.056-2.178,0.702-4.283,1.88-6.109
			c1.111-1.727,2.643-3.128,4.449-4.082c1.658,1.507,3.56,2.301,5.53,2.301c1.178,0,2.333-0.283,3.437-0.842
			c0.353-0.178,0.495-0.609,0.316-0.963c-0.179-0.352-0.609-0.494-0.962-0.314c-0.902,0.455-1.841,0.687-2.792,0.687
			c-1.733,0-3.426-0.774-4.895-2.241c-0.215-0.213-0.541-0.27-0.813-0.139c-2.238,1.064-4.13,2.73-5.475,4.817
			c-1.382,2.144-2.112,4.631-2.112,7.194v0.009c0,0.203,0.085,0.396,0.236,0.53c1.594,1.447,3.4,2.609,5.369,3.459
			c0.092,0.04,0.188,0.06,0.283,0.06c0.277,0,0.541-0.163,0.658-0.433C225.861,330.524,225.693,330.103,225.329,329.946z"/>
		<path fill="#859FCE" d="M227.369,330.716c-0.258-0.178-0.607-0.168-0.853,0.025c-0.249,0.194-0.338,0.544-0.218,0.836
			c0.108,0.266,0.376,0.442,0.662,0.442c0.318,0,0.604-0.22,0.689-0.525C227.731,331.205,227.615,330.886,227.369,330.716z"/>
	</g>
</g>
<polygon fill="#FFFFFF" points="166.771,374.527 165.801,373.556 159.979,379.376 154.158,373.556 153.187,374.527 159.009,380.348 
	153.188,386.169 154.159,387.14 159.979,381.32 165.801,387.14 166.771,386.169 160.951,380.348 "/>
<path fill="#A9B9C1" d="M483.405,78.852l0.208-0.265c1.1-1.397,1.681-3.077,1.681-4.855c0-4.341-3.532-7.873-7.872-7.873
	c-4.342,0-7.873,3.532-7.873,7.873c0,4.34,3.531,7.872,7.873,7.872c1.777,0,3.457-0.581,4.854-1.68l0.265-0.208l6.99,6.989
	c0.115,0.115,0.269,0.179,0.432,0.179s0.316-0.064,0.432-0.179s0.18-0.269,0.18-0.432s-0.064-0.316-0.18-0.432L483.405,78.852z
	 M477.422,80.383c-3.668,0-6.651-2.983-6.651-6.65s2.983-6.651,6.651-6.651c3.666,0,6.65,2.984,6.65,6.651
	S481.088,80.383,477.422,80.383z"/>
</svg>
